<svg width="24" height="24" viewBox="0 0 24 24" fill="none" xmlns="http://www.w3.org/2000/svg">
<path d="M22.5 12C22.5 17.799 17.799 22.5 12 22.5C6.20101 22.5 1.5 17.799 1.5 12C1.5 6.20101 6.20101 1.5 12 1.5C17.799 1.5 22.5 6.20101 22.5 12Z" fill="#1F74CE" stroke="url(#paint0_linear_75_9055)" stroke-width="3"/>
<path d="M15.7682 8.39563L10.9245 4.73342C10.6639 4.58119 10.3635 4.5 10.0578 4.5C9.75205 4.5 9.44898 4.58119 9.17782 4.73632C8.59693 5.06687 8.25 5.67434 8.25 6.35865V16.8973C8.25 17.5598 8.57965 18.1557 9.13262 18.4921C9.71882 18.8502 10.4645 18.8342 11.0348 18.4515L15.6818 15.3373C16.1776 15.0053 16.4834 14.4428 16.4993 13.8324C16.5153 13.2177 16.2494 12.6552 15.7682 12.2898L15.1355 11.8099L15.6818 11.4446C16.1776 11.1126 16.4834 10.55 16.4993 9.93967C16.5153 9.32495 16.2494 8.76243 15.7682 8.39708V8.39563ZM9.31872 10.2528C9.31872 9.98027 9.45829 9.7367 9.69224 9.60477C9.94479 9.46123 10.2585 9.48153 10.4898 9.65696L13.248 11.7519L13.1709 11.8027L10.4539 13.6236C10.3329 13.7048 10.1934 13.7483 10.0511 13.7483C9.91954 13.7483 9.78794 13.7106 9.6723 13.641C9.45031 13.5047 9.31739 13.267 9.31739 13.0031V10.2543L9.31872 10.2528ZM15.1368 13.1858C15.3296 13.3322 15.4373 13.5569 15.4306 13.802C15.424 14.0484 15.3043 14.2673 15.101 14.4036L10.4539 17.5178C10.3329 17.599 10.1934 17.6425 10.0511 17.6425C9.91954 17.6425 9.78794 17.6048 9.6723 17.5352C9.45031 17.3989 9.31739 17.1612 9.31739 16.8973V14.7037L9.48886 14.7617C10.0179 14.943 10.5669 14.8705 11.0321 14.5573L14.1705 12.4536L15.1342 13.1858H15.1368ZM15.101 10.5094L14.2104 11.1068L14.1785 11.0821L10.9231 8.6276C10.4885 8.37388 9.97935 8.32459 9.49019 8.49276L9.31872 8.55221V6.35865C9.31872 6.08609 9.45829 5.84252 9.69224 5.70914C9.94479 5.56561 10.2585 5.5859 10.4898 5.76133L15.1368 9.29016C15.3296 9.43659 15.4373 9.66131 15.4306 9.90633C15.424 10.1528 15.3043 10.3717 15.101 10.508V10.5094Z" fill="white"/>
<defs>
<linearGradient id="paint0_linear_75_9055" x1="12" y1="0" x2="12" y2="24" gradientUnits="userSpaceOnUse">
<stop stop-color="#B74AE0"/>
<stop offset="1" stop-color="#27CED8"/>
</linearGradient>
</defs>
</svg>
