<svg width="323" height="103" viewBox="0 0 323 103" fill="none" xmlns="http://www.w3.org/2000/svg">
<rect x="0.5" y="0.5" width="102" height="102" rx="2.93333" stroke="#B4D1EF"/>
<path d="M44.8632 48H39.6814V28.4712C37.7881 30.2416 35.5568 31.5508 32.9874 32.3991V27.6967C34.3397 27.2542 35.8088 26.4182 37.3947 25.1888C38.9806 23.9471 40.0687 22.5026 40.6588 20.8552H44.8632V48ZM70.1271 43.187V48H51.9629C52.1596 46.1805 52.7497 44.4594 53.7333 42.8366C54.7168 41.2015 56.6592 39.0378 59.5605 36.3454C61.8964 34.1694 63.3286 32.6942 63.8572 31.9197C64.5703 30.8501 64.9268 29.7928 64.9268 28.7479C64.9268 27.5922 64.6133 26.7071 63.9863 26.0924C63.3716 25.4654 62.5172 25.1519 61.423 25.1519C60.3412 25.1519 59.4806 25.4777 58.8413 26.1293C58.2021 26.7808 57.8332 27.8627 57.7349 29.3748L52.5715 28.8585C52.8788 26.0063 53.8439 23.9594 55.4667 22.7177C57.0895 21.476 59.118 20.8552 61.5521 20.8552C64.2199 20.8552 66.316 21.5744 67.8404 23.0128C69.3649 24.4512 70.1271 26.2399 70.1271 28.379C70.1271 29.5961 69.9058 30.7579 69.4632 31.8643C69.0329 32.9585 68.3445 34.108 67.3979 35.3128C66.7709 36.1119 65.6398 37.2613 64.0048 38.7612C62.3697 40.261 61.3308 41.2568 60.8883 41.7486C60.458 42.2403 60.1076 42.7198 59.8371 43.187H70.1271Z" fill="#1F74CE"/>
<path d="M32.7708 69L36.5462 59.1694H37.9477L41.9711 69H40.4891L39.3425 66.0227H35.2318L34.1522 69H32.7708ZM35.6074 64.9632H38.9401L37.9141 62.2406C37.6012 61.4136 37.3687 60.7341 37.2167 60.2021C37.0916 60.8324 36.915 61.4583 36.687 62.0797L35.6074 64.9632ZM47.5033 66.3915L48.6902 66.5457C48.5606 67.3638 48.2276 68.0053 47.6911 68.4702C47.1591 68.9307 46.5042 69.1609 45.7263 69.1609C44.7518 69.1609 43.9672 68.8435 43.3726 68.2087C42.7825 67.5694 42.4874 66.6552 42.4874 65.4661C42.4874 64.6972 42.6149 64.0243 42.8697 63.4477C43.1245 62.871 43.5112 62.4396 44.0298 62.1534C44.5528 61.8629 45.1206 61.7176 45.733 61.7176C46.5064 61.7176 47.139 61.9143 47.6307 62.3077C48.1225 62.6966 48.4377 63.251 48.5763 63.9707L47.4027 64.1518C47.291 63.6734 47.0921 63.3135 46.8059 63.0721C46.5243 62.8307 46.1823 62.71 45.78 62.71C45.172 62.71 44.678 62.9291 44.298 63.3672C43.918 63.8008 43.728 64.4893 43.728 65.4326C43.728 66.3892 43.9113 67.0844 44.2779 67.518C44.6445 67.9517 45.1228 68.1685 45.7129 68.1685C46.1868 68.1685 46.5824 68.0232 46.8998 67.7326C47.2172 67.442 47.4184 66.995 47.5033 66.3915ZM52.3583 67.9204L52.5326 68.9866C52.1929 69.0581 51.8889 69.0939 51.6207 69.0939C51.1825 69.0939 50.8428 69.0246 50.6014 68.886C50.36 68.7474 50.1901 68.5664 50.0917 68.3428C49.9934 68.1148 49.9442 67.6387 49.9442 66.9145V62.8173H49.0591V61.8785H49.9442V60.1149L51.1445 59.3907V61.8785H52.3583V62.8173H51.1445V66.9816C51.1445 67.3258 51.1647 67.5471 51.2049 67.6454C51.2496 67.7438 51.3189 67.822 51.4128 67.8801C51.5111 67.9383 51.6497 67.9673 51.8285 67.9673C51.9626 67.9673 52.1392 67.9517 52.3583 67.9204ZM53.5519 60.5575V59.1694H54.7589V60.5575H53.5519ZM53.5519 69V61.8785H54.7589V69H53.5519ZM58.5812 69L55.8721 61.8785H57.1462L58.6751 66.1434C58.8405 66.6038 58.9925 67.0822 59.1311 67.5784C59.2384 67.2029 59.3881 66.7513 59.5804 66.2238L61.1629 61.8785H62.4035L59.7078 69H58.5812ZM68.3447 66.7066L69.592 66.8609C69.3953 67.5896 69.031 68.1551 68.499 68.5574C67.967 68.9598 67.2875 69.1609 66.4604 69.1609C65.4188 69.1609 64.5918 68.8413 63.9793 68.202C63.3713 67.5583 63.0673 66.6575 63.0673 65.4996C63.0673 64.3015 63.3758 63.3717 63.9927 62.71C64.6097 62.0484 65.4099 61.7176 66.3934 61.7176C67.3456 61.7176 68.1235 62.0417 68.727 62.6899C69.3305 63.3381 69.6322 64.2501 69.6322 65.4258C69.6322 65.4974 69.63 65.6047 69.6255 65.7477H64.3146C64.3593 66.5301 64.5806 67.1291 64.9785 67.5449C65.3763 67.9606 65.8726 68.1685 66.4671 68.1685C66.9097 68.1685 67.2875 68.0523 67.6004 67.8198C67.9133 67.5873 68.1615 67.2163 68.3447 66.7066ZM64.3817 64.7553H68.3582C68.3045 64.1562 68.1525 63.7069 67.9022 63.4074C67.5177 62.9425 67.0192 62.71 66.4068 62.71C65.8524 62.71 65.3853 62.8956 65.0053 63.2666C64.6298 63.6377 64.4219 64.1339 64.3817 64.7553ZM27.7416 86V76.1694H31.4498C32.1025 76.1694 32.601 76.2007 32.9452 76.2633C33.428 76.3437 33.8326 76.498 34.1589 76.726C34.4853 76.9495 34.7468 77.2647 34.9435 77.6715C35.1447 78.0783 35.2453 78.5253 35.2453 79.0126C35.2453 79.8486 34.9793 80.5572 34.4473 81.1383C33.9153 81.715 32.9541 82.0034 31.5638 82.0034H29.0425V86H27.7416ZM29.0425 80.8433H31.5839C32.4244 80.8433 33.0212 80.6868 33.3744 80.3739C33.7275 80.061 33.9041 79.6206 33.9041 79.0529C33.9041 78.6416 33.7991 78.2906 33.5889 78.0001C33.3833 77.705 33.1106 77.5105 32.7708 77.4167C32.5518 77.3585 32.1472 77.3295 31.5571 77.3295H29.0425V80.8433ZM36.7339 86V78.8785H37.8203V79.9581C38.0974 79.453 38.3522 79.1199 38.5847 78.959C38.8217 78.798 39.0809 78.7176 39.3626 78.7176C39.7694 78.7176 40.1829 78.8472 40.6031 79.1065L40.1874 80.2264C39.8923 80.052 39.5973 79.9648 39.3022 79.9648C39.0385 79.9648 38.8015 80.0453 38.5914 80.2062C38.3813 80.3627 38.2315 80.5818 38.1421 80.8634C38.008 81.2926 37.941 81.762 37.941 82.2716V86H36.7339ZM40.8714 82.4393C40.8714 81.1205 41.2379 80.1437 41.9711 79.5089C42.5836 78.9813 43.3301 78.7176 44.2108 78.7176C45.1899 78.7176 45.9901 79.0395 46.6115 79.6832C47.2329 80.3225 47.5436 81.2076 47.5436 82.3387C47.5436 83.2551 47.405 83.9771 47.1278 84.5046C46.8551 85.0277 46.455 85.4345 45.9275 85.7251C45.4044 86.0156 44.8322 86.1609 44.2108 86.1609C43.2139 86.1609 42.407 85.8413 41.7901 85.202C41.1776 84.5627 40.8714 83.6418 40.8714 82.4393ZM42.1119 82.4393C42.1119 83.3512 42.3109 84.0352 42.7087 84.4912C43.1066 84.9427 43.6073 85.1685 44.2108 85.1685C44.8099 85.1685 45.3083 84.9405 45.7062 84.4845C46.1041 84.0285 46.303 83.3334 46.303 82.399C46.303 81.5183 46.1018 80.8522 45.6995 80.4007C45.3016 79.9447 44.8054 79.7167 44.2108 79.7167C43.6073 79.7167 43.1066 79.9425 42.7087 80.394C42.3109 80.8455 42.1119 81.5273 42.1119 82.4393ZM48.9585 77.5709V76.1694H50.1655V77.5709H48.9585ZM47.4296 88.7628L47.6576 87.7368C47.899 87.7994 48.089 87.8307 48.2276 87.8307C48.4734 87.8307 48.6567 87.748 48.7774 87.5826C48.8981 87.4216 48.9585 87.0148 48.9585 86.3621V78.8785H50.1655V86.3889C50.1655 87.2651 50.0515 87.8754 49.8235 88.2196C49.5329 88.6666 49.0501 88.8902 48.3751 88.8902C48.0487 88.8902 47.7336 88.8477 47.4296 88.7628ZM56.8981 83.7066L58.1453 83.8609C57.9486 84.5896 57.5843 85.1551 57.0523 85.5574C56.5203 85.9598 55.8408 86.1609 55.0138 86.1609C53.9721 86.1609 53.1451 85.8413 52.5326 85.202C51.9246 84.5583 51.6207 83.6575 51.6207 82.4996C51.6207 81.3015 51.9291 80.3717 52.546 79.71C53.163 79.0484 53.9632 78.7176 54.9467 78.7176C55.8989 78.7176 56.6768 79.0417 57.2803 79.6899C57.8838 80.3381 58.1856 81.2501 58.1856 82.4258C58.1856 82.4974 58.1833 82.6047 58.1789 82.7477H52.8679C52.9126 83.5301 53.1339 84.1291 53.5318 84.5449C53.9297 84.9606 54.4259 85.1685 55.0205 85.1685C55.463 85.1685 55.8408 85.0523 56.1537 84.8198C56.4667 84.5873 56.7148 84.2163 56.8981 83.7066ZM52.935 81.7553H56.9115C56.8578 81.1562 56.7058 80.7069 56.4555 80.4074C56.071 79.9425 55.5726 79.71 54.9601 79.71C54.4058 79.71 53.9386 79.8956 53.5586 80.2666C53.1831 80.6377 52.9752 81.1339 52.935 81.7553ZM64.3146 83.3915L65.5015 83.5457C65.3719 84.3638 65.0388 85.0053 64.5024 85.4702C63.9704 85.9307 63.3154 86.1609 62.5376 86.1609C61.563 86.1609 60.7784 85.8435 60.1839 85.2087C59.5938 84.5694 59.2987 83.6552 59.2987 82.4661C59.2987 81.6972 59.4261 81.0243 59.6809 80.4477C59.9358 79.871 60.3225 79.4396 60.841 79.1534C61.3641 78.8629 61.9318 78.7176 62.5443 78.7176C63.3177 78.7176 63.9503 78.9143 64.442 79.3077C64.9338 79.6966 65.2489 80.251 65.3875 80.9707L64.214 81.1518C64.1023 80.6734 63.9033 80.3135 63.6172 80.0721C63.3356 79.8307 62.9936 79.71 62.5912 79.71C61.9832 79.71 61.4893 79.9291 61.1093 80.3672C60.7293 80.8008 60.5393 81.4893 60.5393 82.4326C60.5393 83.3892 60.7226 84.0844 61.0891 84.518C61.4557 84.9517 61.9341 85.1685 62.5242 85.1685C62.998 85.1685 63.3937 85.0232 63.7111 84.7326C64.0285 84.442 64.2297 83.995 64.3146 83.3915ZM69.1695 84.9204L69.3439 85.9866C69.0041 86.0581 68.7001 86.0939 68.4319 86.0939C67.9938 86.0939 67.6541 86.0246 67.4126 85.886C67.1712 85.7474 67.0014 85.5664 66.903 85.3428C66.8047 85.1148 66.7555 84.6387 66.7555 83.9145V79.8173H65.8703V78.8785H66.7555V77.1149L67.9558 76.3907V78.8785H69.1695V79.8173H67.9558V83.9816C67.9558 84.3258 67.9759 84.5471 68.0162 84.6454C68.0609 84.7438 68.1302 84.822 68.224 84.8801C68.3224 84.9383 68.461 84.9673 68.6398 84.9673C68.7739 84.9673 68.9505 84.9517 69.1695 84.9204ZM69.8736 83.8743L71.0673 83.6865C71.1343 84.1649 71.3199 84.5314 71.6238 84.7863C71.9323 85.0411 72.3615 85.1685 72.9113 85.1685C73.4657 85.1685 73.877 85.0567 74.1452 84.8332C74.4134 84.6052 74.5475 84.3392 74.5475 84.0352C74.5475 83.7625 74.4291 83.5479 74.1921 83.3915C74.0267 83.2842 73.6154 83.1478 72.9583 82.9824C72.0731 82.7589 71.4584 82.5667 71.1142 82.4057C70.7745 82.2403 70.5152 82.0146 70.3363 81.7285C70.162 81.4379 70.0748 81.1182 70.0748 80.7695C70.0748 80.4521 70.1463 80.1593 70.2894 79.8911C70.4369 79.6184 70.6359 79.3926 70.8862 79.2138C71.074 79.0752 71.3288 78.959 71.6507 78.8651C71.977 78.7668 72.3257 78.7176 72.6968 78.7176C73.2556 78.7176 73.7451 78.798 74.1653 78.959C74.59 79.1199 74.9029 79.339 75.1041 79.6161C75.3053 79.8888 75.4439 80.2554 75.5199 80.7159L74.3397 80.8768C74.286 80.5102 74.1296 80.2241 73.8703 80.0185C73.6154 79.8128 73.2533 79.71 72.7839 79.71C72.2296 79.71 71.834 79.8017 71.597 79.985C71.3601 80.1683 71.2416 80.3828 71.2416 80.6287C71.2416 80.7852 71.2908 80.926 71.3891 81.0512C71.4875 81.1808 71.6417 81.2881 71.8518 81.373C71.9725 81.4178 72.3279 81.5206 72.918 81.6815C73.7719 81.9095 74.3665 82.0973 74.7018 82.2448C75.0415 82.3878 75.3075 82.598 75.4998 82.8751C75.692 83.1523 75.7881 83.4965 75.7881 83.9078C75.7881 84.3102 75.6696 84.6901 75.4327 85.0478C75.2002 85.401 74.8627 85.6759 74.4201 85.8726C73.9776 86.0648 73.4769 86.1609 72.918 86.1609C71.9927 86.1609 71.2863 85.9687 70.799 85.5842C70.3162 85.1998 70.0078 84.6298 69.8736 83.8743Z" fill="#1F74CE"/>
<rect x="110.367" y="0.5" width="102" height="102" rx="2.93333" stroke="#B4D1EF"/>
<path d="M141.287 40.8265L146.303 40.218C146.462 41.4966 146.893 42.4739 147.593 43.1501C148.294 43.8262 149.142 44.1643 150.138 44.1643C151.208 44.1643 152.105 43.7586 152.831 42.9472C153.568 42.1358 153.937 41.0417 153.937 39.6648C153.937 38.3616 153.587 37.3289 152.886 36.5667C152.185 35.8045 151.331 35.4234 150.323 35.4234C149.659 35.4234 148.866 35.5525 147.944 35.8107L148.515 31.5877C149.917 31.6246 150.986 31.3234 151.724 30.6841C152.462 30.0326 152.831 29.172 152.831 28.1024C152.831 27.1927 152.56 26.4673 152.019 25.9264C151.478 25.3855 150.759 25.115 149.862 25.115C148.976 25.115 148.22 25.4224 147.593 26.0371C146.966 26.6518 146.585 27.5492 146.45 28.7294L141.674 27.918C142.006 26.2829 142.504 24.9798 143.168 24.0086C143.844 23.0251 144.778 22.2567 145.971 21.7035C147.175 21.138 148.522 20.8552 150.009 20.8552C152.554 20.8552 154.595 21.6666 156.131 23.2894C157.398 24.6171 158.031 26.117 158.031 27.7889C158.031 30.1616 156.734 32.0549 154.14 33.4687C155.689 33.8006 156.924 34.5444 157.846 35.7C158.781 36.8556 159.248 38.251 159.248 39.8861C159.248 42.2588 158.381 44.2811 156.648 45.9531C154.914 47.625 152.757 48.461 150.175 48.461C147.729 48.461 145.7 47.7603 144.09 46.3588C142.479 44.945 141.545 43.1009 141.287 40.8265ZM179.994 43.187V48H161.83C162.026 46.1805 162.616 44.4594 163.6 42.8366C164.583 41.2015 166.526 39.0378 169.427 36.3454C171.763 34.1694 173.195 32.6942 173.724 31.9197C174.437 30.8501 174.793 29.7928 174.793 28.7479C174.793 27.5922 174.48 26.7071 173.853 26.0924C173.238 25.4654 172.384 25.1519 171.29 25.1519C170.208 25.1519 169.347 25.4777 168.708 26.1293C168.069 26.7808 167.7 27.8627 167.602 29.3748L162.438 28.8585C162.746 26.0063 163.711 23.9594 165.333 22.7177C166.956 21.476 168.985 20.8552 171.419 20.8552C174.087 20.8552 176.183 21.5744 177.707 23.0128C179.232 24.4512 179.994 26.2399 179.994 28.379C179.994 29.5961 179.772 30.7579 179.33 31.8643C178.9 32.9585 178.211 34.108 177.265 35.3128C176.638 36.1119 175.507 37.2613 173.871 38.7612C172.236 40.261 171.198 41.2568 170.755 41.7486C170.325 42.2403 169.974 42.7198 169.704 43.187H179.994Z" fill="#1F74CE"/>
<path d="M137.206 69V59.1694H140.914C141.567 59.1694 142.066 59.2007 142.41 59.2633C142.893 59.3437 143.297 59.498 143.624 59.726C143.95 59.9495 144.211 60.2647 144.408 60.6715C144.609 61.0783 144.71 61.5253 144.71 62.0126C144.71 62.8486 144.444 63.5572 143.912 64.1383C143.38 64.715 142.419 65.0034 141.028 65.0034H138.507V69H137.206ZM138.507 63.8433H141.049C141.889 63.8433 142.486 63.6868 142.839 63.3739C143.192 63.061 143.369 62.6206 143.369 62.0529C143.369 61.6416 143.264 61.2906 143.054 61.0001C142.848 60.705 142.575 60.5105 142.235 60.4167C142.016 60.3585 141.612 60.3295 141.022 60.3295H138.507V63.8433ZM151.087 66.7066L152.334 66.8609C152.138 67.5896 151.773 68.1551 151.241 68.5574C150.709 68.9598 150.03 69.1609 149.203 69.1609C148.161 69.1609 147.334 68.8413 146.722 68.202C146.114 67.5583 145.81 66.6575 145.81 65.4996C145.81 64.3015 146.118 63.3717 146.735 62.71C147.352 62.0484 148.152 61.7176 149.136 61.7176C150.088 61.7176 150.866 62.0417 151.469 62.6899C152.073 63.3381 152.375 64.2501 152.375 65.4258C152.375 65.4974 152.372 65.6047 152.368 65.7477H147.057C147.102 66.5301 147.323 67.1291 147.721 67.5449C148.119 67.9606 148.615 68.1685 149.209 68.1685C149.652 68.1685 150.03 68.0523 150.343 67.8198C150.656 67.5873 150.904 67.2163 151.087 66.7066ZM147.124 64.7553H151.1C151.047 64.1562 150.895 63.7069 150.644 63.4074C150.26 62.9425 149.762 62.71 149.149 62.71C148.595 62.71 148.128 62.8956 147.748 63.2666C147.372 63.6377 147.164 64.1339 147.124 64.7553ZM153.856 69V61.8785H154.943V62.8911C155.466 62.1087 156.221 61.7176 157.209 61.7176C157.639 61.7176 158.032 61.7958 158.39 61.9523C158.752 62.1043 159.022 62.3054 159.201 62.5558C159.38 62.8061 159.505 63.1034 159.576 63.4477C159.621 63.6712 159.644 64.0623 159.644 64.6212V69H158.436V64.6681C158.436 64.1763 158.39 63.8098 158.296 63.5684C158.202 63.3225 158.034 63.128 157.793 62.985C157.556 62.8374 157.276 62.7637 156.955 62.7637C156.44 62.7637 155.996 62.9268 155.62 63.2532C155.249 63.5795 155.064 64.1987 155.064 65.1107V69H153.856ZM166.121 69V68.1014C165.67 68.8078 165.006 69.1609 164.13 69.1609C163.562 69.1609 163.039 69.0045 162.561 68.6915C162.087 68.3786 161.718 67.9427 161.454 67.3839C161.195 66.8206 161.065 66.1747 161.065 65.446C161.065 64.7352 161.184 64.0914 161.421 63.5147C161.657 62.9335 162.013 62.4887 162.487 62.1803C162.961 61.8718 163.49 61.7176 164.076 61.7176C164.505 61.7176 164.887 61.8092 165.223 61.9925C165.558 62.1713 165.831 62.406 166.041 62.6966V59.1694H167.241V69H166.121ZM162.306 65.446C162.306 66.3579 162.498 67.0397 162.882 67.4912C163.267 67.9427 163.721 68.1685 164.244 68.1685C164.771 68.1685 165.218 67.9539 165.585 67.5247C165.956 67.0911 166.141 66.4317 166.141 65.5465C166.141 64.572 165.954 63.8567 165.578 63.4007C165.203 62.9447 164.74 62.7167 164.19 62.7167C163.654 62.7167 163.204 62.9358 162.842 63.3739C162.485 63.812 162.306 64.5027 162.306 65.446ZM169.152 60.5575V59.1694H170.359V60.5575H169.152ZM169.152 69V61.8785H170.359V69H169.152ZM172.203 69V61.8785H173.29V62.8911C173.813 62.1087 174.568 61.7176 175.556 61.7176C175.985 61.7176 176.379 61.7958 176.736 61.9523C177.099 62.1043 177.369 62.3054 177.548 62.5558C177.727 62.8061 177.852 63.1034 177.923 63.4477C177.968 63.6712 177.99 64.0623 177.99 64.6212V69H176.783V64.6681C176.783 64.1763 176.736 63.8098 176.643 63.5684C176.549 63.3225 176.381 63.128 176.14 62.985C175.903 62.8374 175.623 62.7637 175.301 62.7637C174.787 62.7637 174.342 62.9268 173.967 63.2532C173.596 63.5795 173.41 64.1987 173.41 65.1107V69H172.203ZM179.627 69.5901L180.8 69.7645C180.849 70.1266 180.986 70.3903 181.209 70.5557C181.509 70.7793 181.918 70.891 182.436 70.891C182.995 70.891 183.427 70.7793 183.731 70.5557C184.034 70.3322 184.24 70.0193 184.347 69.6169C184.41 69.3711 184.439 68.8547 184.435 68.0679C183.907 68.6893 183.25 69 182.463 69C181.484 69 180.726 68.6468 180.19 67.9405C179.653 67.2342 179.385 66.387 179.385 65.399C179.385 64.7195 179.508 64.0936 179.754 63.5214C180 62.9447 180.355 62.4999 180.82 62.187C181.29 61.874 181.839 61.7176 182.47 61.7176C183.31 61.7176 184.003 62.0573 184.549 62.7368V61.8785H185.662V68.0344C185.662 69.1431 185.548 69.9276 185.32 70.3881C185.096 70.853 184.739 71.2196 184.247 71.4878C183.76 71.7561 183.158 71.8902 182.443 71.8902C181.594 71.8902 180.907 71.6979 180.384 71.3135C179.861 70.9335 179.609 70.359 179.627 69.5901ZM180.626 65.3118C180.626 66.2462 180.811 66.9279 181.182 67.3571C181.553 67.7863 182.018 68.0008 182.577 68.0008C183.131 68.0008 183.596 67.7885 183.972 67.3638C184.347 66.9346 184.535 66.2641 184.535 65.3521C184.535 64.4803 184.341 63.8232 183.952 63.3806C183.567 62.938 183.102 62.7167 182.557 62.7167C182.021 62.7167 181.565 62.9358 181.189 63.3739C180.814 63.8075 180.626 64.4535 180.626 65.3118ZM147.372 86V77.3295H144.133V76.1694H151.925V77.3295H148.673V86H147.372ZM156.23 85.1215C155.783 85.5015 155.352 85.7698 154.936 85.9262C154.525 86.0827 154.082 86.1609 153.608 86.1609C152.826 86.1609 152.225 85.9709 151.805 85.591C151.384 85.2065 151.174 84.717 151.174 84.1224C151.174 83.7737 151.252 83.4563 151.409 83.1702C151.57 82.8796 151.778 82.6471 152.033 82.4728C152.292 82.2984 152.582 82.1666 152.904 82.0771C153.141 82.0146 153.499 81.9542 153.977 81.8961C154.952 81.7799 155.669 81.6413 156.13 81.4803C156.134 81.3149 156.136 81.2099 156.136 81.1652C156.136 80.6734 156.022 80.327 155.794 80.1258C155.486 79.8531 155.028 79.7167 154.42 79.7167C153.852 79.7167 153.432 79.8173 153.159 80.0185C152.891 80.2152 152.692 80.5661 152.562 81.0713L151.382 80.9104C151.489 80.4052 151.666 79.9984 151.912 79.6899C152.158 79.377 152.513 79.1378 152.978 78.9724C153.443 78.8025 153.982 78.7176 154.594 78.7176C155.202 78.7176 155.696 78.7891 156.076 78.9322C156.456 79.0752 156.735 79.2563 156.914 79.4753C157.093 79.6899 157.218 79.9626 157.29 80.2934C157.33 80.4991 157.35 80.8701 157.35 81.4066V83.016C157.35 84.138 157.375 84.8488 157.424 85.1484C157.478 85.4434 157.58 85.7273 157.732 86H156.472C156.347 85.7497 156.266 85.4568 156.23 85.1215ZM156.13 82.4258C155.692 82.6047 155.034 82.7567 154.158 82.8818C153.662 82.9534 153.311 83.0338 153.105 83.1232C152.9 83.2127 152.741 83.3445 152.629 83.5189C152.518 83.6888 152.462 83.8788 152.462 84.0889C152.462 84.4107 152.582 84.679 152.824 84.8936C153.07 85.1081 153.427 85.2154 153.897 85.2154C154.362 85.2154 154.775 85.1148 155.137 84.9137C155.499 84.708 155.765 84.4286 155.935 84.0755C156.065 83.8028 156.13 83.4004 156.13 82.8684V82.4258ZM158.745 83.8743L159.939 83.6865C160.006 84.1649 160.191 84.5314 160.495 84.7863C160.804 85.0411 161.233 85.1685 161.783 85.1685C162.337 85.1685 162.748 85.0567 163.017 84.8332C163.285 84.6052 163.419 84.3392 163.419 84.0352C163.419 83.7625 163.3 83.5479 163.063 83.3915C162.898 83.2842 162.487 83.1478 161.83 82.9824C160.944 82.7589 160.33 82.5667 159.986 82.4057C159.646 82.2403 159.386 82.0146 159.208 81.7285C159.033 81.4379 158.946 81.1182 158.946 80.7695C158.946 80.4521 159.018 80.1593 159.161 79.8911C159.308 79.6184 159.507 79.3926 159.758 79.2138C159.945 79.0752 160.2 78.959 160.522 78.8651C160.848 78.7668 161.197 78.7176 161.568 78.7176C162.127 78.7176 162.616 78.798 163.037 78.959C163.461 79.1199 163.774 79.339 163.975 79.6161C164.177 79.8888 164.315 80.2554 164.391 80.7159L163.211 80.8768C163.157 80.5102 163.001 80.2241 162.742 80.0185C162.487 79.8128 162.125 79.71 161.655 79.71C161.101 79.71 160.705 79.8017 160.468 79.985C160.231 80.1683 160.113 80.3828 160.113 80.6287C160.113 80.7852 160.162 80.926 160.26 81.0512C160.359 81.1808 160.513 81.2881 160.723 81.373C160.844 81.4178 161.199 81.5206 161.789 81.6815C162.643 81.9095 163.238 82.0973 163.573 82.2448C163.913 82.3878 164.179 82.598 164.371 82.8751C164.563 83.1523 164.659 83.4965 164.659 83.9078C164.659 84.3102 164.541 84.6901 164.304 85.0478C164.072 85.401 163.734 85.6759 163.291 85.8726C162.849 86.0648 162.348 86.1609 161.789 86.1609C160.864 86.1609 160.158 85.9687 159.67 85.5842C159.188 85.1998 158.879 84.6298 158.745 83.8743ZM166.101 86V76.1694H167.308V81.7754L170.165 78.8785H171.727L169.005 81.5206L172.002 86H170.514L168.16 82.3588L167.308 83.1769V86H166.101ZM172.478 83.8743L173.672 83.6865C173.739 84.1649 173.924 84.5314 174.228 84.7863C174.537 85.0411 174.966 85.1685 175.516 85.1685C176.07 85.1685 176.482 85.0567 176.75 84.8332C177.018 84.6052 177.152 84.3392 177.152 84.0352C177.152 83.7625 177.034 83.5479 176.797 83.3915C176.631 83.2842 176.22 83.1478 175.563 82.9824C174.678 82.7589 174.063 82.5667 173.719 82.4057C173.379 82.2403 173.12 82.0146 172.941 81.7285C172.767 81.4379 172.679 81.1182 172.679 80.7695C172.679 80.4521 172.751 80.1593 172.894 79.8911C173.042 79.6184 173.241 79.3926 173.491 79.2138C173.679 79.0752 173.933 78.959 174.255 78.8651C174.582 78.7668 174.93 78.7176 175.301 78.7176C175.86 78.7176 176.35 78.798 176.77 78.959C177.195 79.1199 177.508 79.339 177.709 79.6161C177.91 79.8888 178.049 80.2554 178.125 80.7159L176.944 80.8768C176.891 80.5102 176.734 80.2241 176.475 80.0185C176.22 79.8128 175.858 79.71 175.389 79.71C174.834 79.71 174.439 79.8017 174.202 79.985C173.965 80.1683 173.846 80.3828 173.846 80.6287C173.846 80.7852 173.895 80.926 173.994 81.0512C174.092 81.1808 174.246 81.2881 174.456 81.373C174.577 81.4178 174.933 81.5206 175.523 81.6815C176.377 81.9095 176.971 82.0973 177.306 82.2448C177.646 82.3878 177.912 82.598 178.104 82.8751C178.297 83.1523 178.393 83.4965 178.393 83.9078C178.393 84.3102 178.274 84.6901 178.037 85.0478C177.805 85.401 177.467 85.6759 177.025 85.8726C176.582 86.0648 176.081 86.1609 175.523 86.1609C174.597 86.1609 173.891 85.9687 173.404 85.5842C172.921 85.1998 172.612 84.6298 172.478 83.8743Z" fill="#1F74CE"/>
<rect x="220.233" y="0.5" width="102" height="102" rx="2.93333" stroke="#B4D1EF"/>
<path d="M249.295 50.5H244.218V31.3677C242.363 33.1021 240.177 34.3848 237.66 35.2158V30.6089C238.985 30.1753 240.424 29.3563 241.978 28.1519C243.532 26.9354 244.598 25.5202 245.176 23.9062H249.295V50.5ZM274.046 45.7847V50.5H256.25C256.443 48.7174 257.021 47.0312 257.985 45.4414C258.948 43.8395 260.851 41.7197 263.694 39.082C265.982 36.9502 267.385 35.5049 267.903 34.7461C268.602 33.6982 268.951 32.6624 268.951 31.6387C268.951 30.5065 268.644 29.6393 268.03 29.0371C267.428 28.4229 266.59 28.1157 265.519 28.1157C264.459 28.1157 263.616 28.4349 262.989 29.0732C262.363 29.7116 262.002 30.7715 261.905 32.2529L256.847 31.7471C257.148 28.9528 258.093 26.9474 259.683 25.731C261.273 24.5145 263.26 23.9062 265.645 23.9062C268.259 23.9062 270.312 24.6108 271.806 26.02C273.299 27.4292 274.046 29.1816 274.046 31.2773C274.046 32.4697 273.829 33.6079 273.396 34.6919C272.974 35.7638 272.299 36.89 271.372 38.0703C270.758 38.8532 269.65 39.9793 268.048 41.4487C266.446 42.9181 265.428 43.8937 264.995 44.3755C264.573 44.8573 264.23 45.327 263.965 45.7847H274.046ZM278.581 50.5V45.4233H283.657V50.5H278.581ZM287.867 43.689L292.925 43.165C293.07 44.3092 293.497 45.2186 294.208 45.8931C294.919 46.5555 295.738 46.8867 296.665 46.8867C297.725 46.8867 298.622 46.4591 299.357 45.604C300.092 44.7368 300.459 43.436 300.459 41.7017C300.459 40.0757 300.092 38.8592 299.357 38.0522C298.634 37.2332 297.689 36.8237 296.521 36.8237C295.063 36.8237 293.756 37.4681 292.6 38.7568L288.481 38.1606L291.083 24.376H304.506V29.1274H294.931L294.136 33.626C295.268 33.0599 296.424 32.7769 297.604 32.7769C299.857 32.7769 301.766 33.5959 303.332 35.2339C304.897 36.8719 305.68 38.9977 305.68 41.6113C305.68 43.7913 305.048 45.7365 303.783 47.4468C302.061 49.7834 299.67 50.9517 296.611 50.9517C294.166 50.9517 292.173 50.2952 290.631 48.9824C289.089 47.6696 288.168 45.9051 287.867 43.689Z" fill="#1F74CE"/>
<path d="M233.889 71.5V61.6694H235.19V65.7062H240.3V61.6694H241.601V71.5H240.3V66.8663H235.19V71.5H233.889ZM243.17 67.9393C243.17 66.6205 243.536 65.6437 244.27 65.0089C244.882 64.4813 245.629 64.2176 246.509 64.2176C247.488 64.2176 248.289 64.5395 248.91 65.1832C249.531 65.8225 249.842 66.7076 249.842 67.8387C249.842 68.7551 249.703 69.4771 249.426 70.0046C249.154 70.5277 248.753 70.9345 248.226 71.2251C247.703 71.5156 247.131 71.6609 246.509 71.6609C245.512 71.6609 244.705 71.3413 244.089 70.702C243.476 70.0627 243.17 69.1418 243.17 67.9393ZM244.41 67.9393C244.41 68.8512 244.609 69.5352 245.007 69.9912C245.405 70.4427 245.906 70.6685 246.509 70.6685C247.108 70.6685 247.607 70.4405 248.005 69.9845C248.403 69.5285 248.601 68.8334 248.601 67.899C248.601 67.0183 248.4 66.3522 247.998 65.9007C247.6 65.4447 247.104 65.2167 246.509 65.2167C245.906 65.2167 245.405 65.4425 245.007 65.894C244.609 66.3455 244.41 67.0273 244.41 67.9393ZM255.931 71.5V70.4539C255.376 71.2586 254.623 71.6609 253.671 71.6609C253.251 71.6609 252.857 71.5805 252.491 71.4195C252.129 71.2586 251.858 71.0574 251.679 70.816C251.505 70.5701 251.382 70.2706 251.311 69.9174C251.261 69.6805 251.237 69.305 251.237 68.7909V64.3785H252.444V68.3282C252.444 68.9585 252.468 69.3832 252.518 69.6023C252.594 69.9197 252.755 70.17 253 70.3533C253.246 70.5321 253.55 70.6215 253.912 70.6215C254.275 70.6215 254.614 70.5299 254.932 70.3466C255.249 70.1589 255.473 69.9063 255.602 69.5889C255.736 69.267 255.803 68.8021 255.803 68.1941V64.3785H257.01V71.5H255.931ZM258.895 71.5V64.3785H259.981V65.4581C260.258 64.953 260.513 64.6199 260.746 64.459C260.982 64.298 261.242 64.2176 261.523 64.2176C261.93 64.2176 262.344 64.3472 262.764 64.6065L262.348 65.7264C262.053 65.552 261.758 65.4648 261.463 65.4648C261.199 65.4648 260.962 65.5453 260.752 65.7062C260.542 65.8627 260.392 66.0818 260.303 66.3634C260.169 66.7926 260.102 67.262 260.102 67.7716V71.5H258.895ZM262.999 69.3743L264.192 69.1865C264.259 69.6649 264.445 70.0314 264.749 70.2863C265.057 70.5411 265.486 70.6685 266.036 70.6685C266.591 70.6685 267.002 70.5567 267.27 70.3332C267.538 70.1052 267.673 69.8392 267.673 69.5352C267.673 69.2625 267.554 69.0479 267.317 68.8915C267.152 68.7842 266.74 68.6478 266.083 68.4824C265.198 68.2589 264.583 68.0667 264.239 67.9057C263.899 67.7403 263.64 67.5146 263.461 67.2285C263.287 66.9379 263.2 66.6182 263.2 66.2695C263.2 65.9521 263.271 65.6593 263.414 65.3911C263.562 65.1184 263.761 64.8926 264.011 64.7138C264.199 64.5752 264.454 64.459 264.776 64.3651C265.102 64.2668 265.451 64.2176 265.822 64.2176C266.381 64.2176 266.87 64.298 267.29 64.459C267.715 64.6199 268.028 64.839 268.229 65.1161C268.43 65.3888 268.569 65.7554 268.645 66.2159L267.465 66.3768C267.411 66.0102 267.255 65.7241 266.995 65.5185C266.74 65.3128 266.378 65.21 265.909 65.21C265.355 65.21 264.959 65.3017 264.722 65.485C264.485 65.6683 264.367 65.8828 264.367 66.1287C264.367 66.2852 264.416 66.426 264.514 66.5512C264.613 66.6808 264.767 66.7881 264.977 66.873C265.098 66.9178 265.453 67.0206 266.043 67.1815C266.897 67.4095 267.492 67.5973 267.827 67.7448C268.167 67.8878 268.433 68.098 268.625 68.3751C268.817 68.6523 268.913 68.9965 268.913 69.4078C268.913 69.8102 268.795 70.1901 268.558 70.5478C268.325 70.901 267.988 71.1759 267.545 71.3726C267.103 71.5648 266.602 71.6609 266.043 71.6609C265.118 71.6609 264.411 71.4687 263.924 71.0842C263.441 70.6998 263.133 70.1298 262.999 69.3743ZM276.571 71.5V62.8295H273.332V61.6694H281.124V62.8295H277.872V71.5H276.571ZM280.333 67.9393C280.333 66.6205 280.7 65.6437 281.433 65.0089C282.045 64.4813 282.792 64.2176 283.672 64.2176C284.651 64.2176 285.452 64.5395 286.073 65.1832C286.694 65.8225 287.005 66.7076 287.005 67.8387C287.005 68.7551 286.867 69.4771 286.589 70.0046C286.317 70.5277 285.917 70.9345 285.389 71.2251C284.866 71.5156 284.294 71.6609 283.672 71.6609C282.676 71.6609 281.869 71.3413 281.252 70.702C280.639 70.0627 280.333 69.1418 280.333 67.9393ZM281.574 67.9393C281.574 68.8512 281.772 69.5352 282.17 69.9912C282.568 70.4427 283.069 70.6685 283.672 70.6685C284.271 70.6685 284.77 70.4405 285.168 69.9845C285.566 69.5285 285.765 68.8334 285.765 67.899C285.765 67.0183 285.563 66.3522 285.161 65.9007C284.763 65.4447 284.267 65.2167 283.672 65.2167C283.069 65.2167 282.568 65.4425 282.17 65.894C281.772 66.3455 281.574 67.0273 281.574 67.9393ZM293.047 71.5V70.6014C292.596 71.3078 291.932 71.6609 291.055 71.6609C290.488 71.6609 289.965 71.5045 289.486 71.1915C289.012 70.8786 288.644 70.4427 288.38 69.8839C288.121 69.3206 287.991 68.6747 287.991 67.946C287.991 67.2352 288.109 66.5914 288.346 66.0147C288.583 65.4335 288.939 64.9887 289.413 64.6803C289.886 64.3718 290.416 64.2176 291.002 64.2176C291.431 64.2176 291.813 64.3092 292.148 64.4925C292.484 64.6713 292.756 64.906 292.967 65.1966V61.6694H294.167V71.5H293.047ZM289.231 67.946C289.231 68.8579 289.424 69.5397 289.808 69.9912C290.193 70.4427 290.646 70.6685 291.169 70.6685C291.697 70.6685 292.144 70.4539 292.511 70.0247C292.882 69.5911 293.067 68.9317 293.067 68.0465C293.067 67.072 292.879 66.3567 292.504 65.9007C292.128 65.4447 291.666 65.2167 291.116 65.2167C290.579 65.2167 290.13 65.4358 289.768 65.8739C289.41 66.312 289.231 67.0027 289.231 67.946ZM300.718 70.6215C300.271 71.0015 299.84 71.2698 299.424 71.4262C299.013 71.5827 298.57 71.6609 298.096 71.6609C297.314 71.6609 296.713 71.4709 296.293 71.091C295.872 70.7065 295.662 70.217 295.662 69.6224C295.662 69.2737 295.741 68.9563 295.897 68.6702C296.058 68.3796 296.266 68.1471 296.521 67.9728C296.78 67.7984 297.07 67.6666 297.392 67.5771C297.629 67.5146 297.987 67.4542 298.465 67.3961C299.44 67.2799 300.157 67.1413 300.618 66.9803C300.622 66.8149 300.625 66.7099 300.625 66.6652C300.625 66.1734 300.511 65.827 300.283 65.6258C299.974 65.3531 299.516 65.2167 298.908 65.2167C298.34 65.2167 297.92 65.3173 297.647 65.5185C297.379 65.7152 297.18 66.0661 297.05 66.5713L295.87 66.4104C295.977 65.9052 296.154 65.4984 296.4 65.1899C296.646 64.877 297.001 64.6378 297.466 64.4724C297.931 64.3025 298.47 64.2176 299.082 64.2176C299.69 64.2176 300.184 64.2891 300.564 64.4322C300.944 64.5752 301.224 64.7563 301.402 64.9753C301.581 65.1899 301.706 65.4626 301.778 65.7934C301.818 65.9991 301.838 66.3701 301.838 66.9066V68.516C301.838 69.638 301.863 70.3488 301.912 70.6484C301.966 70.9434 302.068 71.2273 302.22 71.5H300.96C300.835 71.2497 300.754 70.9568 300.718 70.6215ZM300.618 67.9258C300.18 68.1047 299.523 68.2567 298.646 68.3818C298.15 68.4534 297.799 68.5338 297.594 68.6232C297.388 68.7127 297.229 68.8445 297.117 69.0189C297.006 69.1888 296.95 69.3788 296.95 69.5889C296.95 69.9107 297.07 70.179 297.312 70.3936C297.558 70.6081 297.915 70.7154 298.385 70.7154C298.85 70.7154 299.263 70.6148 299.625 70.4137C299.987 70.208 300.253 69.9286 300.423 69.5755C300.553 69.3028 300.618 68.9004 300.618 68.3684V67.9258ZM303.662 74.2426L303.528 73.1094C303.792 73.1809 304.022 73.2167 304.219 73.2167C304.487 73.2167 304.702 73.172 304.863 73.0826C305.023 72.9931 305.155 72.868 305.258 72.707C305.334 72.5863 305.457 72.2868 305.627 71.8085C305.649 71.7414 305.685 71.6431 305.734 71.5134L303.032 64.3785H304.333L305.815 68.5025C306.007 69.0256 306.179 69.5755 306.331 70.1521C306.47 69.5978 306.635 69.0569 306.827 68.5294L308.35 64.3785H309.557L306.847 71.6207C306.557 72.403 306.331 72.9417 306.17 73.2368C305.956 73.6347 305.71 73.9252 305.433 74.1085C305.155 74.2963 304.825 74.3902 304.44 74.3902C304.208 74.3902 303.948 74.341 303.662 74.2426Z" fill="#1F74CE"/>
</svg>
