<svg width="91" height="112" viewBox="0 0 91 112" fill="none" xmlns="http://www.w3.org/2000/svg">
<mask id="mask0_74_62901" style="mask-type:alpha" maskUnits="userSpaceOnUse" x="14" y="23" width="65" height="65">
<circle cx="46.2775" cy="55.9169" r="31.9298" fill="#D9D9D9"/>
</mask>
<g mask="url(#mask0_74_62901)">
<rect x="7.98242" y="20.7549" width="75.0351" height="76.6316" fill="url(#paint0_linear_74_62901)"/>
</g>
<circle cx="46.2765" cy="55.9166" r="33.5263" stroke="#CCCCCC" stroke-width="3.19298"/>
<path d="M57.1903 58.2631V47.6613C57.1903 47.6591 57.1889 47.6571 57.1875 47.6551C57.1859 47.653 57.1843 47.6508 57.1843 47.6481C57.1824 47.5654 57.1711 47.4827 57.1381 47.4034L57.1903 58.2631ZM57.1903 58.2631H57.3153V58.1472C57.2766 58.144 57.2378 58.1411 57.199 58.1384L57.1903 58.2631ZM24.8818 47.6198C24.8818 47.6198 24.8818 47.6198 24.8818 47.6198C24.8781 47.6308 24.875 47.6449 24.875 47.6613V67.6984C24.875 67.9948 25.0423 68.2667 25.3071 68.4004C25.4187 68.4573 25.5407 68.4847 25.6613 68.4847H46.9772L24.8818 47.6198ZM24.9372 47.3545C24.9372 47.3546 24.9372 47.3546 24.9371 47.3547C24.9371 47.3547 24.9371 47.3548 24.9371 47.3548L25.0522 47.4034L24.9372 47.3545ZM57.3093 47.6451C57.3091 47.6366 57.3088 47.6281 57.3084 47.6194L57.2887 47.5819C57.2886 47.5817 57.2887 47.5818 57.2888 47.582C57.2891 47.5824 57.2899 47.5835 57.2908 47.5849C57.2922 47.5871 57.2947 47.591 57.2973 47.5962C57.3024 47.6065 57.3087 47.6234 57.3093 47.6451ZM48.3777 62.6599C47.5984 63.9155 47.1039 65.3616 46.9772 66.9121H28.0507L37.0185 60.2918C38.355 61.1279 39.724 61.5596 41.0958 61.5596C42.4656 61.5596 43.8359 61.1285 45.173 60.2931L48.3777 62.6599ZM26.4476 49.6003L35.8 59.2368L26.4476 66.1407V49.6003ZM49.3107 61.3943L46.3916 59.2381L55.7427 49.601V58.1465C53.1843 58.3557 50.908 59.568 49.3107 61.3943ZM37.5049 58.7347L27.5201 48.4476H54.6702L44.6887 58.734C43.48 59.5692 42.284 59.9811 41.0948 59.981C39.9057 59.9809 38.711 59.5689 37.5049 58.7347ZM56.529 75.7205C52.1059 75.7205 48.5076 72.1222 48.5076 67.699C48.5076 63.2759 52.1059 59.6776 56.529 59.6776C60.9535 59.677 64.5524 63.2753 64.5524 67.6984C64.5524 72.1215 60.9534 75.7205 56.529 75.7205Z" fill="white" stroke="white" stroke-width="0.25"/>
<path d="M59.5325 64.7151L55.8319 69.323L53.4394 67.2954C53.161 67.0587 52.7424 67.0944 52.5076 67.3722C52.2715 67.6506 52.3053 68.0678 52.5843 68.3039L55.4947 70.7705C55.615 70.8724 55.7665 70.9272 55.9219 70.9272C55.9424 70.9272 55.9635 70.9259 55.9854 70.9239C56.1632 70.9074 56.3259 70.8195 56.4377 70.6799L60.5628 65.5424C60.7923 65.2573 60.746 64.8414 60.4616 64.6132C60.1766 64.3844 59.7607 64.4301 59.5325 64.7151Z" fill="white"/>
<g clip-path="url(#clip0_74_62901)">
<path d="M57.5275 40.5895C57.6788 40.1358 58.3195 40.1358 58.4708 40.5895L59.3576 43.2529C59.5528 43.8384 59.8817 44.3703 60.3183 44.8066C60.7548 45.2429 61.2869 45.5715 61.8725 45.7664L64.5345 46.6533C64.9883 46.8045 64.9883 47.4453 64.5345 47.5965L61.8711 48.4834C61.2857 48.6786 60.7537 49.0075 60.3174 49.444C59.8811 49.8805 59.5525 50.4127 59.3576 50.9983L58.4708 53.6603C58.4381 53.7596 58.375 53.8462 58.2903 53.9075C58.2056 53.9688 58.1037 54.0019 57.9991 54.0019C57.8946 54.0019 57.7927 53.9688 57.708 53.9075C57.6233 53.8462 57.5601 53.7596 57.5275 53.6603L56.6406 50.9969C56.4456 50.4116 56.1169 49.8797 55.6806 49.4434C55.2443 49.0072 54.7125 48.6785 54.1271 48.4834L51.4638 47.5965C51.3644 47.5639 51.2779 47.5008 51.2165 47.4161C51.1552 47.3314 51.1222 47.2295 51.1222 47.1249C51.1222 47.0203 51.1552 46.9184 51.2165 46.8337C51.2779 46.749 51.3644 46.6859 51.4638 46.6533L54.1271 45.7664C54.7125 45.5713 55.2443 45.2426 55.6806 44.8064C56.1169 44.3701 56.4456 43.8382 56.6406 43.2529L57.5275 40.5895ZM52.2159 33.5784C52.2356 33.5188 52.2736 33.467 52.3244 33.4303C52.3753 33.3936 52.4364 33.3738 52.4991 33.3738C52.5619 33.3738 52.623 33.3936 52.6738 33.4303C52.7247 33.467 52.7627 33.5188 52.7824 33.5784L53.3145 35.1761C53.5524 35.8884 54.1106 36.4466 54.8229 36.6845L56.4206 37.2166C56.4802 37.2364 56.532 37.2743 56.5687 37.3252C56.6054 37.376 56.6252 37.4372 56.6252 37.4999C56.6252 37.5626 56.6054 37.6237 56.5687 37.6746C56.532 37.7254 56.4802 37.7634 56.4206 37.7831L54.8229 38.3153C54.4714 38.4319 54.152 38.629 53.8901 38.8909C53.6283 39.1528 53.4312 39.4722 53.3145 39.8236L52.7824 41.4214C52.7627 41.4809 52.7247 41.5328 52.6738 41.5695C52.623 41.6062 52.5619 41.626 52.4991 41.626C52.4364 41.626 52.3753 41.6062 52.3244 41.5695C52.2736 41.5328 52.2356 41.4809 52.2159 41.4214L51.6838 39.8236C51.5671 39.4722 51.37 39.1528 51.1081 38.8909C50.8463 38.629 50.5269 38.4319 50.1754 38.3153L48.5776 37.7831C48.5181 37.7634 48.4663 37.7254 48.4295 37.6746C48.3928 37.6237 48.373 37.5626 48.373 37.4999C48.373 37.4372 48.3928 37.376 48.4295 37.3252C48.4663 37.2743 48.5181 37.2364 48.5776 37.2166L50.1754 36.6845C50.5269 36.5679 50.8463 36.3708 51.1081 36.1089C51.37 35.847 51.5671 35.5276 51.6838 35.1761L52.2159 33.5784ZM61.9358 32.136C61.9493 32.0969 61.9748 32.0629 62.0085 32.0389C62.0423 32.0149 62.0827 32.002 62.1241 32.002C62.1656 32.002 62.206 32.0149 62.2397 32.0389C62.2735 32.0629 62.2989 32.0969 62.3125 32.136L62.6673 33.2003C62.8254 33.676 63.198 34.0486 63.6738 34.2068L64.738 34.5615C64.7772 34.5751 64.8111 34.6005 64.8351 34.6343C64.8592 34.668 64.8721 34.7085 64.8721 34.7499C64.8721 34.7913 64.8592 34.8317 64.8351 34.8655C64.8111 34.8993 64.7772 34.9247 64.738 34.9383L63.6738 35.293C63.4395 35.3714 63.2267 35.5031 63.052 35.6778C62.8773 35.8524 62.7456 36.0653 62.6673 36.2995L62.3125 37.3638C62.2989 37.4029 62.2735 37.4369 62.2397 37.4609C62.206 37.4849 62.1656 37.4978 62.1241 37.4978C62.0827 37.4978 62.0423 37.4849 62.0085 37.4609C61.9748 37.4369 61.9493 37.4029 61.9358 37.3638L61.581 36.2995C61.5026 36.0653 61.3709 35.8524 61.1963 35.6778C61.0216 35.5031 60.8088 35.3714 60.5745 35.293L59.5116 34.9383C59.4725 34.9247 59.4385 34.8993 59.4145 34.8655C59.3905 34.8317 59.3776 34.7913 59.3776 34.7499C59.3776 34.7085 59.3905 34.668 59.4145 34.6343C59.4385 34.6005 59.4725 34.5751 59.5116 34.5615L60.5759 34.2068C61.0516 34.0486 61.4243 33.676 61.5824 33.2003L61.9358 32.136Z" fill="white"/>
</g>
<circle cx="56" cy="68" r="9" fill="white"/>
<path d="M52.0672 67.1388L51.8911 66.9626L51.7143 67.1382L50.8268 68.0194L50.6488 68.1962L50.8262 68.3736L54.3199 71.8674L54.4967 72.0441L54.6735 71.8674L62.1735 64.3674L62.3502 64.1906L62.1735 64.0138L61.2922 63.1325L61.1155 62.9559L60.9387 63.1325L54.4968 69.5684L52.0672 67.1388Z" fill="#4898FD" stroke="#4693F4" stroke-width="0.5"/>
<defs>
<linearGradient id="paint0_linear_74_62901" x1="45.5" y1="20.7549" x2="45.5" y2="97.3865" gradientUnits="userSpaceOnUse">
<stop stop-color="#B658FF"/>
<stop offset="1" stop-color="#11EEF4"/>
</linearGradient>
<clipPath id="clip0_74_62901">
<rect width="22" height="22" fill="white" transform="translate(47 32)"/>
</clipPath>
</defs>
</svg>
