<svg width="157" height="157" viewBox="0 0 157 157" fill="none" xmlns="http://www.w3.org/2000/svg">
<path d="M147.19 78.1006C147.19 89.0035 144.609 99.7517 139.659 109.466C134.709 119.181 127.531 127.586 118.71 133.995C109.889 140.403 99.6772 144.633 88.9085 146.339C78.1398 148.045 67.1202 147.177 56.7509 143.808C46.3816 140.439 36.9569 134.663 29.2473 126.954C21.5377 119.244 15.7623 109.82 12.3931 99.4502C9.02386 89.0809 8.15661 78.0614 9.86221 67.2927C11.5678 56.524 15.7978 46.3118 22.2064 37.4911" stroke="url(#paint0_linear_84_66631)" stroke-width="18.0232" stroke-linecap="round" stroke-linejoin="round"/>
<path d="M78.1006 9.01161C90.1056 9.01161 101.903 12.1397 112.331 18.0877C122.759 24.0357 131.457 32.5982 137.568 42.9314C143.679 53.2646 146.992 65.0119 147.181 77.0154C147.37 89.0189 144.427 100.864 138.644 111.384" stroke="#34CFF7" stroke-width="18.0232" stroke-linecap="round" stroke-linejoin="round"/>
<mask id="mask0_84_66631" style="mask-type:alpha" maskUnits="userSpaceOnUse" x="25" y="23" width="107" height="108">
<circle cx="78.6653" cy="77.0804" r="53.2932" fill="#D9D9D9"/>
</mask>
<g mask="url(#mask0_84_66631)">
<rect x="14.748" y="18.3923" width="125.239" height="127.904" fill="url(#paint1_linear_84_66631)"/>
</g>
<path d="M96.8803 80.9962V63.301C96.8803 63.2973 96.878 63.2941 96.8756 63.2907C96.873 63.2872 96.8704 63.2835 96.8704 63.2789C96.8671 63.141 96.8483 63.003 96.7931 62.8705L96.8803 80.9962ZM96.8803 80.9962H97.089V80.8027C97.0243 80.7975 96.9596 80.7926 96.8948 80.7881L96.8803 80.9962ZM97.079 63.2739C97.0786 63.2598 97.0781 63.2455 97.0775 63.2312C97.0727 63.217 97.0672 63.2055 97.0627 63.1971C97.0575 63.1874 97.0525 63.1798 97.0497 63.1756L97.0461 63.1704L97.0451 63.1691L97.0447 63.1686C97.0452 63.1692 97.0466 63.1712 97.0481 63.1736C97.0505 63.1772 97.0546 63.1837 97.0589 63.1924C97.0632 63.2012 97.0683 63.2132 97.0723 63.228C97.076 63.2416 97.0785 63.2571 97.079 63.2739ZM97.079 63.2739C97.079 63.2756 97.079 63.2773 97.079 63.2789H97.0791L97.079 63.2739ZM42.9551 63.2317C42.9551 63.2317 42.9551 63.2318 42.9551 63.2318C42.9489 63.2502 42.9437 63.2737 42.9437 63.301V96.7444C42.9437 97.2392 43.223 97.6929 43.665 97.9161C43.8512 98.0111 44.0549 98.0568 44.2561 98.0568H79.8338L42.9551 63.2317ZM43.0475 62.7889C43.0475 62.789 43.0474 62.7891 43.0474 62.7892C43.0474 62.7893 43.0473 62.7894 43.0473 62.7895L43.2395 62.8705L43.0475 62.7889ZM82.1714 88.3348C80.8708 90.4304 80.0454 92.8441 79.8338 95.432H48.2443L63.2121 84.3823C65.4428 85.7778 67.7278 86.4984 70.0174 86.4984C72.3037 86.4984 74.5908 85.7789 76.8227 84.3844L82.1714 88.3348ZM45.5685 66.5374L61.1783 82.6214L45.5685 94.1446V66.5374ZM83.7286 86.2223L78.8565 82.6236L94.4642 66.5386V80.8017C90.194 81.1508 86.3948 83.1742 83.7286 86.2223ZM64.0239 81.7833L47.3586 64.6134H92.6742L76.0143 81.7822C73.9968 83.1762 72.0005 83.8637 70.0158 83.8636C68.031 83.8634 66.037 83.1757 64.0239 81.7833ZM95.7766 110.134C88.3941 110.134 82.3882 104.128 82.3882 96.7455C82.3882 89.363 88.3941 83.3571 95.7766 83.3571C103.161 83.3561 109.168 89.3619 109.168 96.7444C109.168 104.127 103.161 110.134 95.7766 110.134Z" fill="white" stroke="white" stroke-width="0.417269"/>
<path d="M100.79 91.765L94.6134 99.4559L90.62 96.0718C90.1553 95.6767 89.4567 95.7363 89.0648 96.1998C88.6708 96.6645 88.7271 97.361 89.1929 97.755L94.0504 101.872C94.2513 102.042 94.5041 102.134 94.7635 102.134C94.7977 102.134 94.833 102.131 94.8694 102.128C95.1663 102.1 95.4379 101.954 95.6244 101.721L102.51 93.1458C102.893 92.6701 102.815 91.9758 102.341 91.595C101.865 91.2131 101.171 91.2893 100.79 91.765Z" fill="white"/>
<g clip-path="url(#clip0_84_66631)">
<path d="M97.4426 51.4978C97.695 50.7405 98.7645 50.7405 99.0169 51.4978L100.497 55.9432C100.823 56.9204 101.372 57.8083 102.101 58.5365C102.829 59.2647 103.717 59.8131 104.695 60.1384L109.138 61.6187C109.895 61.8711 109.895 62.9406 109.138 63.193L104.692 64.6733C103.715 64.9991 102.827 65.5481 102.099 66.2767C101.371 67.0052 100.822 67.8934 100.497 68.8708L99.0169 73.3139C98.9625 73.4797 98.8571 73.6241 98.7157 73.7265C98.5744 73.8289 98.4043 73.884 98.2297 73.884C98.0552 73.884 97.8851 73.8289 97.7437 73.7265C97.6024 73.6241 97.497 73.4797 97.4426 73.3139L95.9623 68.8685C95.6367 67.8916 95.0881 67.0038 94.3599 66.2757C93.6318 65.5475 92.744 64.9989 91.7671 64.6733L87.3217 63.193C87.1559 63.1386 87.0115 63.0332 86.9091 62.8918C86.8067 62.7505 86.7516 62.5804 86.7516 62.4059C86.7516 62.2313 86.8067 62.0612 86.9091 61.9199C87.0115 61.7785 87.1559 61.6731 87.3217 61.6187L91.7671 60.1384C92.744 59.8128 93.6318 59.2642 94.3599 58.5361C95.0881 57.8079 95.6367 56.9202 95.9623 55.9432L97.4426 51.4978ZM88.5771 39.7957C88.61 39.6964 88.6734 39.6099 88.7582 39.5486C88.8431 39.4873 88.9451 39.4543 89.0498 39.4543C89.1545 39.4543 89.2565 39.4873 89.3414 39.5486C89.4263 39.6099 89.4897 39.6964 89.5226 39.7957L90.4107 42.4625C90.8078 43.6513 91.7395 44.5831 92.9283 44.9801L95.5951 45.8683C95.6945 45.9012 95.781 45.9646 95.8423 46.0494C95.9036 46.1343 95.9366 46.2363 95.9366 46.341C95.9366 46.4457 95.9036 46.5477 95.8423 46.6326C95.781 46.7175 95.6945 46.7809 95.5951 46.8138L92.9283 47.7019C92.3417 47.8966 91.8086 48.2256 91.3715 48.6627C90.9344 49.0998 90.6054 49.6329 90.4107 50.2195L89.5226 52.8863C89.4897 52.9857 89.4263 53.0722 89.3414 53.1335C89.2565 53.1948 89.1545 53.2278 89.0498 53.2278C88.9451 53.2278 88.8431 53.1948 88.7582 53.1335C88.6734 53.0722 88.61 52.9857 88.5771 52.8863L87.6889 50.2195C87.4942 49.6329 87.1652 49.0998 86.7281 48.6627C86.2911 48.2256 85.758 47.8966 85.1713 47.7019L82.5045 46.8138C82.4052 46.7809 82.3187 46.7175 82.2574 46.6326C82.1961 46.5477 82.1631 46.4457 82.1631 46.341C82.1631 46.2363 82.1961 46.1343 82.2574 46.0494C82.3187 45.9646 82.4052 45.9012 82.5045 45.8683L85.1713 44.9801C85.758 44.7854 86.2911 44.4564 86.7281 44.0193C87.1652 43.5823 87.4942 43.0492 87.6889 42.4625L88.5771 39.7957ZM104.8 37.3883C104.823 37.323 104.865 37.2663 104.922 37.2262C104.978 37.1861 105.045 37.1646 105.115 37.1646C105.184 37.1646 105.251 37.1861 105.308 37.2262C105.364 37.2663 105.406 37.323 105.429 37.3883L106.021 39.1646C106.285 39.9587 106.907 40.5806 107.701 40.8446L109.477 41.4367C109.543 41.4593 109.599 41.5018 109.64 41.5581C109.68 41.6145 109.701 41.6819 109.701 41.7511C109.701 41.8202 109.68 41.8877 109.64 41.944C109.599 42.0004 109.543 42.0428 109.477 42.0655L107.701 42.6576C107.31 42.7884 106.955 43.0082 106.663 43.2998C106.372 43.5913 106.152 43.9465 106.021 44.3375L105.429 46.1138C105.406 46.1792 105.364 46.2358 105.308 46.2759C105.251 46.316 105.184 46.3376 105.115 46.3376C105.045 46.3376 104.978 46.316 104.922 46.2759C104.865 46.2358 104.823 46.1792 104.8 46.1138L104.208 44.3375C104.077 43.9465 103.857 43.5913 103.566 43.2998C103.274 43.0082 102.919 42.7884 102.528 42.6576L100.754 42.0655C100.689 42.0428 100.632 42.0004 100.592 41.944C100.552 41.8877 100.53 41.8202 100.53 41.7511C100.53 41.6819 100.552 41.6145 100.592 41.5581C100.632 41.5018 100.689 41.4593 100.754 41.4367L102.531 40.8446C103.325 40.5806 103.947 39.9587 104.21 39.1646L104.8 37.3883Z" fill="white"/>
</g>
<circle cx="94.8937" cy="97.2477" r="15.0217" fill="white"/>
<path d="M88.3281 95.8106L88.0341 95.5166L87.7391 95.8096L86.2577 97.2804L85.9606 97.5755L86.2567 97.8716L92.088 103.703L92.3831 103.998L92.6781 103.703L105.196 91.1849L105.491 90.8898L105.196 90.5948L103.725 89.1239L103.43 88.829L103.135 89.1238L92.3832 99.8657L88.3281 95.8106Z" fill="#4898FD" stroke="#4693F4" stroke-width="0.834537"/>
<defs>
<linearGradient id="paint0_linear_84_66631" x1="78.1006" y1="0" x2="78.1006" y2="156.201" gradientUnits="userSpaceOnUse">
<stop stop-color="white" stop-opacity="0.05"/>
<stop offset="1" stop-color="white" stop-opacity="0.7"/>
</linearGradient>
<linearGradient id="paint1_linear_84_66631" x1="77.3676" y1="18.3923" x2="77.3676" y2="146.296" gradientUnits="userSpaceOnUse">
<stop stop-color="#B658FF"/>
<stop offset="1" stop-color="#11EEF4"/>
</linearGradient>
<clipPath id="clip0_84_66631">
<rect width="36.7196" height="36.7196" fill="white" transform="translate(79.8721 37.1611)"/>
</clipPath>
</defs>
</svg>
