<svg width="91" height="24" viewBox="0 0 91 24" fill="none" xmlns="http://www.w3.org/2000/svg">
<g clip-path="url(#clip0_15_4344)">
<path d="M63.893 6.25903H61.3516V17.7407H63.893V6.25903Z" fill="#222222"/>
<path d="M49.1101 11.3606H44.5647V13.5637H46.7983V15.2511L46.7667 15.2676C46.1471 15.6025 45.4417 15.7719 44.6695 15.7719C43.9401 15.7719 43.2814 15.6102 42.711 15.2918C42.1406 14.9734 41.6876 14.5226 41.3658 13.9508C41.044 13.3816 40.8812 12.7245 40.8812 11.9986C40.8812 11.2727 41.044 10.599 41.3658 10.0298C41.6876 9.45927 42.1431 9.01101 42.7198 8.69773C43.2952 8.38446 43.9628 8.22654 44.7023 8.22654C45.6727 8.22654 46.5371 8.53345 47.2728 9.13708L48.7101 7.42298C48.2936 7.07532 47.8166 6.78751 47.2904 6.56847C46.4803 6.231 45.5654 6.05908 44.5698 6.05908C43.381 6.05908 42.2958 6.31632 41.3456 6.82317C40.3966 7.32874 39.6445 8.04062 39.1108 8.93842C38.577 9.83622 38.3057 10.8665 38.3057 11.9986C38.3057 13.1307 38.577 14.161 39.1108 15.0588C39.6445 15.9566 40.3916 16.6684 41.3292 17.1753C42.268 17.6821 43.3419 17.9394 44.5205 17.9394C45.3433 17.9394 46.1711 17.812 46.9825 17.5612C47.7826 17.3141 48.4981 16.955 49.1088 16.4952V11.3606H49.1101Z" fill="#222222"/>
<path d="M77.0411 17.7407H79.4185L79.3857 6.25903H77.2947L73.0244 13.5255L68.686 6.25903H66.5786V17.7407H68.956V10.7748L72.4162 16.5144H73.5481L77.0247 10.622L77.0411 17.7407Z" fill="#222222"/>
<path d="M90.0089 12.9015V10.9327H84.6711V8.29278H90.7156V6.25903H82.146V17.7407H90.9288V15.707H84.6711V12.9015H90.0089Z" fill="#222222"/>
<path d="M59.7908 6.25903H49.8911V8.32716H53.5696V17.7407H56.111V8.32716H59.7908V6.25903Z" fill="#222222"/>
<path d="M36.3017 6.25903H33.7603V17.7407H36.3017V6.25903Z" fill="#222222"/>
<path d="M31.6895 14.636C31.6895 13.9343 31.5053 13.3358 31.1431 12.8569C30.7797 12.3781 30.2699 12.0304 29.6288 11.8254L29.4926 11.7821L29.6187 11.7159C30.0882 11.4688 30.4592 11.1237 30.7204 10.6933C30.9816 10.2629 31.1141 9.7662 31.1141 9.21605C31.1141 8.31316 30.7444 7.58727 30.0137 7.06005C29.2768 6.52901 28.2029 6.25903 26.8211 6.25903H21.2637V17.7407H27.1492C28.6294 17.7407 29.7702 17.4682 30.5399 16.9308C31.3021 16.3985 31.6883 15.6255 31.6883 14.6347L31.6895 14.636ZM23.79 8.16161H26.4943C27.1593 8.16161 27.6729 8.27877 28.0212 8.51182C28.377 8.74869 28.5575 9.10908 28.5575 9.58154C28.5575 10.054 28.377 10.4157 28.0224 10.6589C27.6741 10.897 27.1606 11.0168 26.4943 11.0168H23.79V8.16161ZM28.5701 15.4816C28.2067 15.7184 27.6615 15.8394 26.9523 15.8394H23.7887V12.8518H26.9523C28.3972 12.8518 29.1304 13.3574 29.1304 14.3545C29.1304 14.8601 28.9411 15.2396 28.5701 15.4828V15.4816Z" fill="#222222"/>
<path d="M13.8513 12.8979L13.0184 12.3133L10.8631 13.6505L12.4556 14.7699C12.7332 14.9647 12.8872 15.2614 12.8784 15.5836C12.8695 15.9084 12.6966 16.1987 12.4039 16.3795L4.11569 21.5193C3.76488 21.7371 3.32196 21.7447 2.96105 21.541C2.64053 21.3601 2.44872 21.0443 2.44872 20.6966V9.73326C2.44872 9.37286 2.65062 9.05195 2.98881 8.87366C3.15412 8.78706 3.33836 8.73994 3.5226 8.73994C3.75479 8.73994 3.97815 8.80998 4.16743 8.9437L8.79105 12.1936L10.9464 10.8565L5.20977 6.85392C4.16491 6.28722 2.91688 6.28085 1.85184 6.84246C0.737575 7.43208 0.0712891 8.51199 0.0712891 9.73326V20.6979C0.0712891 21.8772 0.704765 22.9392 1.76477 23.5378C2.30107 23.8396 2.90805 24.0001 3.52134 24.0001C4.1851 24.0001 4.83372 23.8154 5.39653 23.4665L13.6847 18.3267C14.6375 17.7358 15.2255 16.7336 15.257 15.6473C15.2886 14.5496 14.7763 13.5473 13.8513 12.8979Z" fill="#004A8C"/>
<path d="M0.0712891 9.73316C0.0712891 8.51189 0.737575 7.43198 1.8531 6.84363C2.04617 6.74176 2.24681 6.65898 2.44998 6.59403V3.30591C2.44998 2.94551 2.65188 2.62459 2.99007 2.44631C3.15538 2.35971 3.33962 2.31387 3.52386 2.31387C3.75605 2.31387 3.97941 2.38391 4.16869 2.51762L12.4569 8.34252C12.7345 8.53736 12.8885 8.83408 12.8796 9.15627C12.8708 9.48101 12.6979 9.77136 12.4051 9.9522L9.92676 11.4893L8.79105 12.1935L4.11569 15.0932C3.76488 15.311 3.32196 15.3186 2.96105 15.1149C2.64053 14.9341 2.44872 14.6182 2.44872 14.2706V17.4071C2.79448 17.5167 3.15665 17.574 3.52134 17.574C4.1851 17.574 4.83246 17.3893 5.39653 17.0404L13.6847 11.9006C14.6375 11.3097 15.2255 10.3075 15.2558 9.22122C15.2873 8.12348 14.775 7.12125 13.85 6.47178L5.21103 0.429115C4.16617 -0.137584 2.91815 -0.143951 1.8531 0.417654C0.737575 1.006 0.0712891 2.08591 0.0712891 3.30591V9.73188V9.73316Z" fill="#1F74CE"/>
</g>
<defs>
<clipPath id="clip0_15_4344">
<rect width="90.8571" height="24" fill="white" transform="translate(0.0712891)"/>
</clipPath>
</defs>
</svg>
