<svg width="107" height="108" viewBox="0 0 107 108" fill="none" xmlns="http://www.w3.org/2000/svg">
<mask id="mask0_84_66533" style="mask-type:alpha" maskUnits="userSpaceOnUse" x="0" y="0" width="107" height="108">
<circle cx="53.6653" cy="54.0803" r="53.2932" fill="#D9D9D9"/>
</mask>
<g mask="url(#mask0_84_66533)">
<rect x="-10.252" y="-4.60767" width="125.239" height="127.904" fill="url(#paint0_linear_84_66533)"/>
</g>
<path d="M71.8803 57.9962V40.301C71.8803 40.2973 71.878 40.2941 71.8756 40.2907C71.873 40.2872 71.8704 40.2835 71.8704 40.2789C71.8671 40.141 71.8483 40.003 71.7931 39.8705L71.8803 57.9962ZM71.8803 57.9962H72.089V57.8027C72.0243 57.7975 71.9596 57.7926 71.8948 57.7881L71.8803 57.9962ZM72.079 40.2739C72.0786 40.2598 72.0781 40.2455 72.0775 40.2312C72.0727 40.217 72.0672 40.2055 72.0627 40.1971C72.0575 40.1874 72.0525 40.1798 72.0497 40.1756L72.0461 40.1704L72.0451 40.1691L72.0447 40.1686C72.0452 40.1692 72.0466 40.1712 72.0481 40.1736C72.0505 40.1772 72.0546 40.1837 72.0589 40.1924C72.0632 40.2012 72.0683 40.2132 72.0723 40.228C72.076 40.2416 72.0785 40.2571 72.079 40.2739ZM72.079 40.2739C72.079 40.2756 72.079 40.2773 72.079 40.2789H72.0791L72.079 40.2739ZM17.9551 40.2317C17.9551 40.2317 17.9551 40.2318 17.9551 40.2318C17.9489 40.2502 17.9437 40.2737 17.9437 40.301V73.7444C17.9437 74.2392 18.223 74.6929 18.665 74.9161C18.8512 75.0111 19.0549 75.0568 19.2561 75.0568H54.8338L17.9551 40.2317ZM18.0475 39.7889C18.0475 39.789 18.0474 39.7891 18.0474 39.7892C18.0474 39.7893 18.0473 39.7894 18.0473 39.7895L18.2395 39.8705L18.0475 39.7889ZM57.1714 65.3348C55.8708 67.4304 55.0454 69.8441 54.8338 72.432H23.2443L38.2121 61.3823C40.4428 62.7778 42.7278 63.4984 45.0174 63.4984C47.3037 63.4984 49.5908 62.7789 51.8227 61.3844L57.1714 65.3348ZM20.5685 43.5374L36.1783 59.6214L20.5685 71.1446V43.5374ZM58.7286 63.2223L53.8565 59.6236L69.4642 43.5386V57.8017C65.194 58.1508 61.3948 60.1742 58.7286 63.2223ZM39.0239 58.7833L22.3586 41.6134H67.6742L51.0143 58.7822C48.9968 60.1762 47.0005 60.8637 45.0158 60.8636C43.031 60.8634 41.037 60.1757 39.0239 58.7833ZM70.7766 87.1339C63.3941 87.1339 57.3882 81.128 57.3882 73.7455C57.3882 66.363 63.3941 60.3571 70.7766 60.3571C78.1613 60.3561 84.1683 66.3619 84.1683 73.7444C84.1683 81.1269 78.1613 87.1339 70.7766 87.1339Z" fill="white" stroke="white" stroke-width="0.417269"/>
<path d="M75.7899 68.765L69.6134 76.4559L65.62 73.0718C65.1553 72.6767 64.4567 72.7363 64.0648 73.1998C63.6708 73.6645 63.7271 74.361 64.1929 74.755L69.0504 78.872C69.2513 79.0419 69.5041 79.1336 69.7635 79.1336C69.7977 79.1336 69.833 79.1313 69.8694 79.128C70.1663 79.1004 70.4379 78.9536 70.6244 78.7208L77.5095 70.1458C77.8925 69.6701 77.8153 68.9758 77.3407 68.595C76.8649 68.2131 76.1707 68.2893 75.7899 68.765Z" fill="white"/>
<g clip-path="url(#clip0_84_66533)">
<path d="M72.4426 28.4978C72.695 27.7405 73.7645 27.7405 74.0169 28.4978L75.4972 32.9432C75.823 33.9204 76.3719 34.8083 77.1005 35.5365C77.8291 36.2647 78.7173 36.8131 79.6947 37.1384L84.1378 38.6187C84.8951 38.8711 84.8951 39.9406 84.1378 40.193L79.6924 41.6733C78.7152 41.9991 77.8273 42.5481 77.0991 43.2767C76.3709 44.0052 75.8225 44.8934 75.4972 45.8708L74.0169 50.3139C73.9625 50.4797 73.8571 50.6241 73.7157 50.7265C73.5744 50.8289 73.4043 50.884 73.2297 50.884C73.0552 50.884 72.8851 50.8289 72.7437 50.7265C72.6024 50.6241 72.497 50.4797 72.4426 50.3139L70.9623 45.8685C70.6367 44.8916 70.0881 44.0038 69.3599 43.2757C68.6318 42.5475 67.744 41.9989 66.7671 41.6733L62.3217 40.193C62.1559 40.1386 62.0115 40.0332 61.9091 39.8918C61.8067 39.7505 61.7516 39.5804 61.7516 39.4059C61.7516 39.2313 61.8067 39.0612 61.9091 38.9199C62.0115 38.7785 62.1559 38.6731 62.3217 38.6187L66.7671 37.1384C67.744 36.8128 68.6318 36.2642 69.3599 35.5361C70.0881 34.8079 70.6367 33.9202 70.9623 32.9432L72.4426 28.4978ZM63.5771 16.7957C63.61 16.6964 63.6734 16.6099 63.7582 16.5486C63.8431 16.4873 63.9451 16.4543 64.0498 16.4543C64.1545 16.4543 64.2565 16.4873 64.3414 16.5486C64.4263 16.6099 64.4897 16.6964 64.5226 16.7957L65.4107 19.4625C65.8078 20.6513 66.7395 21.5831 67.9283 21.9801L70.5951 22.8683C70.6945 22.9012 70.781 22.9646 70.8423 23.0494C70.9036 23.1343 70.9366 23.2363 70.9366 23.341C70.9366 23.4457 70.9036 23.5477 70.8423 23.6326C70.781 23.7175 70.6945 23.7809 70.5951 23.8138L67.9283 24.7019C67.3417 24.8966 66.8086 25.2256 66.3715 25.6627C65.9344 26.0998 65.6054 26.6329 65.4107 27.2195L64.5226 29.8863C64.4897 29.9857 64.4263 30.0722 64.3414 30.1335C64.2565 30.1948 64.1545 30.2278 64.0498 30.2278C63.9451 30.2278 63.8431 30.1948 63.7582 30.1335C63.6734 30.0722 63.61 29.9857 63.5771 29.8863L62.6889 27.2195C62.4942 26.6329 62.1652 26.0998 61.7281 25.6627C61.2911 25.2256 60.758 24.8966 60.1713 24.7019L57.5045 23.8138C57.4052 23.7809 57.3187 23.7175 57.2574 23.6326C57.1961 23.5477 57.1631 23.4457 57.1631 23.341C57.1631 23.2363 57.1961 23.1343 57.2574 23.0494C57.3187 22.9646 57.4052 22.9012 57.5045 22.8683L60.1713 21.9801C60.758 21.7854 61.2911 21.4564 61.7281 21.0193C62.1652 20.5823 62.4942 20.0492 62.6889 19.4625L63.5771 16.7957ZM79.8002 14.3883C79.8229 14.323 79.8654 14.2663 79.9217 14.2262C79.9781 14.1861 80.0455 14.1646 80.1147 14.1646C80.1838 14.1646 80.2513 14.1861 80.3076 14.2262C80.364 14.2663 80.4064 14.323 80.4291 14.3883L81.0212 16.1646C81.2851 16.9587 81.907 17.5806 82.7011 17.8446L84.4774 18.4367C84.5428 18.4593 84.5994 18.5018 84.6395 18.5581C84.6796 18.6145 84.7012 18.6819 84.7012 18.7511C84.7012 18.8202 84.6796 18.8877 84.6395 18.944C84.5994 19.0004 84.5428 19.0428 84.4774 19.0655L82.7011 19.6576C82.3101 19.7884 81.9549 20.0082 81.6633 20.2998C81.3718 20.5913 81.152 20.9465 81.0212 21.3375L80.4291 23.1138C80.4064 23.1792 80.364 23.2358 80.3076 23.2759C80.2513 23.316 80.1838 23.3376 80.1147 23.3376C80.0455 23.3376 79.9781 23.316 79.9217 23.2759C79.8654 23.2358 79.8229 23.1792 79.8002 23.1138L79.2081 21.3375C79.0773 20.9465 78.8575 20.5913 78.566 20.2998C78.2744 20.0082 77.9192 19.7884 77.5282 19.6576L75.7542 19.0655C75.6889 19.0428 75.6322 19.0004 75.5921 18.944C75.552 18.8877 75.5304 18.8202 75.5304 18.7511C75.5304 18.6819 75.552 18.6145 75.5921 18.5581C75.6322 18.5018 75.6889 18.4593 75.7542 18.4367L77.5305 17.8446C78.3246 17.5806 78.9465 16.9587 79.2104 16.1646L79.8002 14.3883Z" fill="white"/>
</g>
<circle cx="69.8937" cy="74.2477" r="15.0217" fill="white"/>
<path d="M63.3281 72.8106L63.0341 72.5166L62.7391 72.8096L61.2577 74.2804L60.9606 74.5755L61.2567 74.8716L67.088 80.7029L67.3831 80.998L67.6781 80.7029L80.1962 68.1849L80.4912 67.8898L80.1962 67.5948L78.7253 66.1239L78.4304 65.829L78.1354 66.1238L67.3832 76.8657L63.3281 72.8106Z" fill="#4898FD" stroke="#4693F4" stroke-width="0.834537"/>
<defs>
<linearGradient id="paint0_linear_84_66533" x1="52.3676" y1="-4.60767" x2="52.3676" y2="123.296" gradientUnits="userSpaceOnUse">
<stop stop-color="#B658FF"/>
<stop offset="1" stop-color="#11EEF4"/>
</linearGradient>
<clipPath id="clip0_84_66533">
<rect width="36.7196" height="36.7196" fill="white" transform="translate(54.8721 14.1611)"/>
</clipPath>
</defs>
</svg>
