<svg width="48" height="58" viewBox="0 0 48 58" fill="none" xmlns="http://www.w3.org/2000/svg">
<mask id="mask0_84_65442" style="mask-type:alpha" maskUnits="userSpaceOnUse" x="7" y="12" width="34" height="34">
<circle cx="23.9014" cy="28.8801" r="16.4912" fill="#D9D9D9"/>
</mask>
<g mask="url(#mask0_84_65442)">
<rect x="4.12207" y="10.7195" width="38.7544" height="39.5789" fill="url(#paint0_linear_84_65442)"/>
</g>
<circle cx="23.9014" cy="28.8799" r="17.3158" stroke="#CCCCCC" stroke-width="1.64912"/>
<g clip-path="url(#clip0_84_65442)">
<path d="M24.617 26.4579C24.7555 26.0424 25.3422 26.0424 25.4807 26.4579L26.2927 28.8964C26.4714 29.4325 26.7725 29.9195 27.1722 30.319C27.5719 30.7184 28.0591 31.0193 28.5952 31.1977L31.0325 32.0097C31.448 32.1482 31.448 32.7349 31.0325 32.8734L28.594 33.6854C28.0579 33.8641 27.5709 34.1652 27.1714 34.5649C26.772 34.9646 26.4711 35.4518 26.2927 35.9879L25.4807 38.4252C25.4508 38.5162 25.393 38.5954 25.3154 38.6516C25.2379 38.7077 25.1446 38.738 25.0488 38.738C24.9531 38.738 24.8598 38.7077 24.7823 38.6516C24.7047 38.5954 24.6469 38.5162 24.617 38.4252L23.805 35.9867C23.6264 35.4508 23.3255 34.9638 22.926 34.5644C22.5266 34.1649 22.0396 33.864 21.5037 33.6854L19.0652 32.8734C18.9742 32.8435 18.895 32.7857 18.8388 32.7081C18.7826 32.6306 18.7524 32.5373 18.7524 32.4415C18.7524 32.3458 18.7826 32.2525 18.8388 32.175C18.895 32.0974 18.9742 32.0396 19.0652 32.0097L21.5037 31.1977C22.0396 31.0191 22.5266 30.7182 22.926 30.3187C23.3255 29.9193 23.6264 29.4323 23.805 28.8964L24.617 26.4579ZM19.7538 20.0386C19.7718 19.9841 19.8066 19.9366 19.8532 19.903C19.8997 19.8694 19.9557 19.8513 20.0131 19.8513C20.0706 19.8513 20.1265 19.8694 20.1731 19.903C20.2196 19.9366 20.2544 19.9841 20.2725 20.0386L20.7597 21.5015C20.9775 22.1536 21.4886 22.6647 22.1407 22.8825L23.6036 23.3697C23.6581 23.3878 23.7056 23.4225 23.7392 23.4691C23.7728 23.5156 23.7909 23.5716 23.7909 23.629C23.7909 23.6865 23.7728 23.7424 23.7392 23.789C23.7056 23.8356 23.6581 23.8703 23.6036 23.8884L22.1407 24.3756C21.8189 24.4824 21.5265 24.6629 21.2867 24.9026C21.0469 25.1424 20.8665 25.4348 20.7597 25.7566L20.2725 27.2195C20.2544 27.274 20.2196 27.3215 20.1731 27.3551C20.1265 27.3887 20.0706 27.4068 20.0131 27.4068C19.9557 27.4068 19.8997 27.3887 19.8532 27.3551C19.8066 27.3215 19.7718 27.274 19.7538 27.2195L19.2666 25.7566C19.1598 25.4348 18.9793 25.1424 18.7395 24.9026C18.4998 24.6629 18.2074 24.4824 17.8855 24.3756L16.4227 23.8884C16.3681 23.8703 16.3207 23.8356 16.2871 23.789C16.2535 23.7424 16.2354 23.6865 16.2354 23.629C16.2354 23.5716 16.2535 23.5156 16.2871 23.4691C16.3207 23.4225 16.3681 23.3878 16.4227 23.3697L17.8855 22.8825C18.2074 22.7757 18.4998 22.5952 18.7395 22.3555C18.9793 22.1157 19.1598 21.8233 19.2666 21.5015L19.7538 20.0386ZM28.6532 18.718C28.6656 18.6821 28.6889 18.651 28.7198 18.629C28.7507 18.607 28.7877 18.5952 28.8256 18.5952C28.8636 18.5952 28.9006 18.607 28.9315 18.629C28.9624 18.651 28.9857 18.6821 28.9981 18.718L29.3229 19.6924C29.4677 20.128 29.8089 20.4691 30.2444 20.6139L31.2189 20.9387C31.2547 20.9511 31.2858 20.9744 31.3078 21.0053C31.3298 21.0363 31.3416 21.0732 31.3416 21.1112C31.3416 21.1491 31.3298 21.1861 31.3078 21.217C31.2858 21.2479 31.2547 21.2712 31.2189 21.2837L30.2444 21.6085C30.03 21.6802 29.8351 21.8008 29.6752 21.9607C29.5153 22.1207 29.3947 22.3155 29.3229 22.53L28.9981 23.5044C28.9857 23.5403 28.9624 23.5713 28.9315 23.5933C28.9006 23.6153 28.8636 23.6272 28.8256 23.6272C28.7877 23.6272 28.7507 23.6153 28.7198 23.5933C28.6889 23.5713 28.6656 23.5403 28.6532 23.5044L28.3284 22.53C28.2566 22.3155 28.136 22.1207 27.9761 21.9607C27.8162 21.8008 27.6213 21.6802 27.4068 21.6085L26.4337 21.2837C26.3978 21.2712 26.3667 21.2479 26.3447 21.217C26.3227 21.1861 26.3109 21.1491 26.3109 21.1112C26.3109 21.0732 26.3227 21.0363 26.3447 21.0053C26.3667 20.9744 26.3978 20.9511 26.4337 20.9387L27.4081 20.6139C27.8437 20.4691 28.1848 20.128 28.3296 19.6924L28.6532 18.718Z" fill="white"/>
</g>
<defs>
<linearGradient id="paint0_linear_84_65442" x1="23.4993" y1="10.7195" x2="23.4993" y2="50.2984" gradientUnits="userSpaceOnUse">
<stop stop-color="#B658FF"/>
<stop offset="1" stop-color="#11EEF4"/>
</linearGradient>
<clipPath id="clip0_84_65442">
<rect width="20.1429" height="20.1429" fill="white" transform="translate(14.9785 18.5933)"/>
</clipPath>
</defs>
</svg>
