<svg width="207" height="207" viewBox="0 0 207 207" fill="none" xmlns="http://www.w3.org/2000/svg">
<g filter="url(#filter0_d_169_14080)">
<circle cx="103.5" cy="99.5" r="55" stroke="white" stroke-width="11" shape-rendering="crispEdges"/>
</g>
<g filter="url(#filter1_d_169_14080)">
<path fill-rule="evenodd" clip-rule="evenodd" d="M128.732 132.334C129.082 132.065 129.428 131.791 129.77 131.51C135.034 127.19 139.152 121.638 141.758 115.347C144.364 109.055 145.378 102.218 144.71 95.4411C144.043 88.6641 141.714 82.1562 137.931 76.494C136.418 74.2305 134.692 72.1301 132.781 70.2189C129.912 67.3494 126.625 64.9068 123.02 62.9799C120.62 61.6966 118.107 60.658 115.521 59.8734C111.637 58.6954 107.588 58.0903 103.5 58.0903L103.5 26C106.872 26 110.229 26.232 113.549 26.6902C122.13 27.8746 130.462 30.5705 138.148 34.6788C148.603 40.2675 157.549 48.301 164.225 58.0903C164.355 58.2814 164.484 58.4732 164.613 58.6656C171.328 68.7157 175.461 80.2668 176.646 92.2957C177.831 104.325 176.031 116.46 171.405 127.627C167.813 136.299 162.603 144.18 156.078 150.859L128.732 132.334Z" fill="url(#paint0_linear_169_14080)"/>
</g>
<path d="M90.8121 103V97.68H80.4801V96.308L90.0561 82.812H92.4641V96.28H95.3481V97.68H92.4641V103H90.8121ZM82.2721 96.28H90.8121V84.268L82.2721 96.28ZM97.6773 103V102.58C97.6773 101.535 97.8733 100.601 98.2653 99.78C98.6573 98.94 99.1707 98.1933 99.8053 97.54C100.459 96.868 101.168 96.252 101.933 95.692C102.699 95.132 103.464 94.5907 104.229 94.068C104.995 93.5267 105.695 92.976 106.329 92.416C106.983 91.8373 107.505 91.2213 107.897 90.568C108.289 89.896 108.485 89.14 108.485 88.3C108.485 87.012 108.065 85.976 107.225 85.192C106.404 84.408 105.321 84.016 103.977 84.016C102.54 84.016 101.383 84.4453 100.505 85.304C99.6467 86.1627 99.2453 87.3107 99.3013 88.748H97.7053C97.668 87.516 97.9107 86.4333 98.4333 85.5C98.9747 84.5667 99.7307 83.848 100.701 83.344C101.672 82.8213 102.801 82.56 104.089 82.56C105.321 82.56 106.395 82.8027 107.309 83.288C108.224 83.7733 108.933 84.4453 109.437 85.304C109.941 86.144 110.193 87.1147 110.193 88.216C110.193 89.28 109.941 90.2227 109.437 91.044C108.952 91.8653 108.327 92.6213 107.561 93.312C106.796 93.984 105.975 94.628 105.097 95.244C104.22 95.86 103.38 96.4853 102.577 97.12C101.775 97.736 101.093 98.3987 100.533 99.108C99.992 99.8173 99.684 100.62 99.6093 101.516H110.473V103H97.6773Z" fill="black"/>
<path d="M117.367 100L125.665 86.878H126.637L118.321 100H117.367ZM117.763 94.168C116.983 94.168 116.359 93.856 115.891 93.232C115.435 92.596 115.207 91.702 115.207 90.55C115.207 89.374 115.441 88.48 115.909 87.868C116.377 87.256 116.995 86.95 117.763 86.95C118.531 86.95 119.143 87.262 119.599 87.886C120.055 88.51 120.283 89.398 120.283 90.55C120.283 91.726 120.049 92.626 119.581 93.25C119.113 93.862 118.507 94.168 117.763 94.168ZM117.763 93.412C118.267 93.412 118.663 93.184 118.951 92.728C119.251 92.26 119.401 91.534 119.401 90.55C119.401 89.578 119.251 88.864 118.951 88.408C118.663 87.94 118.267 87.706 117.763 87.706C117.235 87.706 116.821 87.94 116.521 88.408C116.233 88.864 116.089 89.578 116.089 90.55C116.089 91.522 116.233 92.242 116.521 92.71C116.821 93.178 117.235 93.412 117.763 93.412ZM126.259 100.09C125.479 100.09 124.861 99.778 124.405 99.154C123.949 98.518 123.721 97.618 123.721 96.454C123.721 95.302 123.949 94.414 124.405 93.79C124.873 93.166 125.497 92.854 126.277 92.854C127.033 92.854 127.639 93.172 128.095 93.808C128.563 94.432 128.797 95.326 128.797 96.49C128.797 97.654 128.563 98.548 128.095 99.172C127.627 99.784 127.015 100.09 126.259 100.09ZM126.277 99.334C126.769 99.334 127.159 99.106 127.447 98.65C127.747 98.194 127.897 97.468 127.897 96.472C127.897 95.488 127.747 94.768 127.447 94.312C127.159 93.856 126.769 93.628 126.277 93.628C125.749 93.628 125.335 93.856 125.035 94.312C124.747 94.768 124.603 95.488 124.603 96.472C124.603 97.456 124.747 98.182 125.035 98.65C125.335 99.106 125.749 99.334 126.277 99.334Z" fill="black"/>
<path d="M92.1997 117V109.71H94.9797C95.6597 109.71 96.2397 109.863 96.7197 110.17C97.2064 110.47 97.5764 110.893 97.8297 111.44C98.0897 111.987 98.2197 112.627 98.2197 113.36C98.2197 114.093 98.0897 114.733 97.8297 115.28C97.5764 115.82 97.2064 116.243 96.7197 116.55C96.2397 116.85 95.6597 117 94.9797 117H92.1997ZM92.8197 116.44H94.9197C95.7464 116.44 96.3964 116.167 96.8697 115.62C97.3431 115.073 97.5797 114.317 97.5797 113.35C97.5797 112.357 97.3364 111.593 96.8497 111.06C96.3697 110.527 95.7264 110.26 94.9197 110.26H92.8197V116.44ZM101.669 117.08C101.175 117.08 100.742 116.97 100.369 116.75C99.9955 116.523 99.7021 116.21 99.4888 115.81C99.2821 115.41 99.1788 114.943 99.1788 114.41C99.1788 113.877 99.2821 113.407 99.4888 113C99.6955 112.593 99.9855 112.277 100.359 112.05C100.732 111.823 101.169 111.71 101.669 111.71C102.162 111.71 102.592 111.823 102.959 112.05C103.332 112.27 103.622 112.583 103.829 112.99C104.035 113.39 104.139 113.86 104.139 114.4C104.139 114.927 104.035 115.393 103.829 115.8C103.622 116.2 103.335 116.513 102.969 116.74C102.602 116.967 102.169 117.08 101.669 117.08ZM101.659 116.56C102.219 116.56 102.669 116.37 103.009 115.99C103.355 115.603 103.529 115.073 103.529 114.4C103.529 113.74 103.362 113.213 103.029 112.82C102.702 112.427 102.249 112.23 101.669 112.23C101.109 112.23 100.652 112.423 100.299 112.81C99.9521 113.197 99.7788 113.73 99.7788 114.41C99.7788 115.063 99.9488 115.587 100.289 115.98C100.629 116.367 101.085 116.56 101.659 116.56ZM105.37 117V111.79H105.92L105.95 112.92H105.99C106.163 112.52 106.42 112.22 106.76 112.02C107.1 111.813 107.473 111.71 107.88 111.71C108.24 111.71 108.56 111.787 108.84 111.94C109.126 112.087 109.35 112.323 109.51 112.65C109.676 112.977 109.76 113.41 109.76 113.95V117H109.17V114.06C109.17 113.427 109.05 112.963 108.81 112.67C108.576 112.37 108.213 112.22 107.72 112.22C107.36 112.22 107.046 112.307 106.78 112.48C106.52 112.653 106.316 112.89 106.17 113.19C106.023 113.49 105.95 113.83 105.95 114.21V117H105.37ZM113.227 117.09C112.5 117.09 111.937 116.847 111.537 116.36C111.137 115.873 110.937 115.223 110.937 114.41C110.937 113.597 111.133 112.943 111.527 112.45C111.92 111.957 112.48 111.71 113.207 111.71C113.713 111.71 114.133 111.827 114.467 112.06C114.8 112.293 115.04 112.617 115.187 113.03C115.34 113.443 115.4 113.923 115.367 114.47H111.507C111.52 115.19 111.68 115.727 111.987 116.08C112.3 116.433 112.713 116.61 113.227 116.61C113.653 116.61 114 116.503 114.267 116.29C114.533 116.077 114.703 115.797 114.777 115.45H115.347C115.273 115.977 115.04 116.383 114.647 116.67C114.253 116.95 113.78 117.09 113.227 117.09ZM113.207 112.19C112.727 112.19 112.337 112.343 112.037 112.65C111.743 112.95 111.573 113.4 111.527 114H114.797C114.777 113.36 114.62 112.9 114.327 112.62C114.04 112.333 113.667 112.19 113.207 112.19Z" fill="black"/>
<defs>
<filter id="filter0_d_169_14080" x="0.799999" y="0.799999" width="205.4" height="205.4" filterUnits="userSpaceOnUse" color-interpolation-filters="sRGB">
<feFlood flood-opacity="0" result="BackgroundImageFix"/>
<feColorMatrix in="SourceAlpha" type="matrix" values="0 0 0 0 0 0 0 0 0 0 0 0 0 0 0 0 0 0 127 0" result="hardAlpha"/>
<feOffset dy="4"/>
<feGaussianBlur stdDeviation="21.1"/>
<feComposite in2="hardAlpha" operator="out"/>
<feColorMatrix type="matrix" values="0 0 0 0 0 0 0 0 0 0 0 0 0 0 0 0 0 0 0.25 0"/>
<feBlend mode="normal" in2="BackgroundImageFix" result="effect1_dropShadow_169_14080"/>
<feBlend mode="normal" in="SourceGraphic" in2="effect1_dropShadow_169_14080" result="shape"/>
</filter>
<filter id="filter1_d_169_14080" x="84.1" y="10.6" width="112.3" height="163.659" filterUnits="userSpaceOnUse" color-interpolation-filters="sRGB">
<feFlood flood-opacity="0" result="BackgroundImageFix"/>
<feColorMatrix in="SourceAlpha" type="matrix" values="0 0 0 0 0 0 0 0 0 0 0 0 0 0 0 0 0 0 127 0" result="hardAlpha"/>
<feOffset dy="4"/>
<feGaussianBlur stdDeviation="9.7"/>
<feComposite in2="hardAlpha" operator="out"/>
<feColorMatrix type="matrix" values="0 0 0 0 1 0 0 0 0 0.828727 0 0 0 0 0.496257 0 0 0 1 0"/>
<feBlend mode="normal" in2="BackgroundImageFix" result="effect1_dropShadow_169_14080"/>
<feBlend mode="normal" in="SourceGraphic" in2="effect1_dropShadow_169_14080" result="shape"/>
</filter>
<linearGradient id="paint0_linear_169_14080" x1="133.945" y1="26" x2="133.945" y2="150.859" gradientUnits="userSpaceOnUse">
<stop stop-color="#FDEF71"/>
<stop offset="1" stop-color="#FFAA46"/>
</linearGradient>
</defs>
</svg>
