<svg width="16" height="16" viewBox="0 0 16 16" fill="none" xmlns="http://www.w3.org/2000/svg">
<g clip-path="url(#clip0_15_4347)">
<path d="M7.65779 6.24697C7.76779 5.91697 8.23379 5.91697 8.34379 6.24697L8.98879 8.18397C9.13076 8.60977 9.36996 8.99665 9.68743 9.31394C10.0049 9.63124 10.3919 9.87023 10.8178 10.012L12.7538 10.657C13.0838 10.767 13.0838 11.233 12.7538 11.343L10.8168 11.988C10.391 12.1299 10.0041 12.3691 9.68681 12.6866C9.36951 13.0041 9.13053 13.3911 8.98879 13.817L8.34379 15.753C8.32007 15.8252 8.27414 15.8882 8.21255 15.9328C8.15095 15.9774 8.07684 16.0014 8.00079 16.0014C7.92473 16.0014 7.85062 15.9774 7.78903 15.9328C7.72743 15.8882 7.6815 15.8252 7.65779 15.753L7.01279 13.816C6.87092 13.3903 6.63187 13.0035 6.31458 12.6862C5.99729 12.3689 5.61048 12.1298 5.18479 11.988L3.24779 11.343C3.17553 11.3193 3.1126 11.2733 3.06799 11.2117C3.02338 11.1501 2.99936 11.076 2.99936 11C2.99936 10.9239 3.02338 10.8498 3.06799 10.7882C3.1126 10.7266 3.17553 10.6807 3.24779 10.657L5.18479 10.012C5.61048 9.8701 5.99729 9.63105 6.31458 9.31376C6.63187 8.99647 6.87092 8.60966 7.01279 8.18397L7.65779 6.24697ZM3.79479 1.14797C3.80913 1.10466 3.83675 1.06698 3.87373 1.04027C3.91071 1.01356 3.95517 0.99918 4.00079 0.99918C4.04641 0.99918 4.09086 1.01356 4.12784 1.04027C4.16482 1.06698 4.19245 1.10466 4.20679 1.14797L4.59379 2.30997C4.76679 2.82797 5.17279 3.23397 5.69079 3.40697L6.85279 3.79397C6.89609 3.80831 6.93378 3.83593 6.96049 3.87291C6.9872 3.90989 7.00157 3.95435 7.00157 3.99997C7.00157 4.04559 6.9872 4.09004 6.96049 4.12702C6.93378 4.164 6.89609 4.19163 6.85279 4.20597L5.69079 4.59297C5.43516 4.67781 5.20288 4.82116 5.01243 5.01161C4.82198 5.20206 4.67863 5.43434 4.59379 5.68997L4.20679 6.85197C4.19245 6.89527 4.16482 6.93296 4.12784 6.95967C4.09086 6.98638 4.04641 7.00075 4.00079 7.00075C3.95517 7.00075 3.91071 6.98638 3.87373 6.95967C3.83675 6.93296 3.80913 6.89527 3.79479 6.85197L3.40779 5.68997C3.32295 5.43434 3.1796 5.20206 2.98915 5.01161C2.7987 4.82116 2.56641 4.67781 2.31079 4.59297L1.14879 4.20597C1.10548 4.19163 1.0678 4.164 1.04109 4.12702C1.01438 4.09004 1 4.04559 1 3.99997C1 3.95435 1.01438 3.90989 1.04109 3.87291C1.0678 3.83593 1.10548 3.80831 1.14879 3.79397L2.31079 3.40697C2.56641 3.32213 2.7987 3.17878 2.98915 2.98833C3.1796 2.79788 3.32295 2.56559 3.40779 2.30997L3.79479 1.14797ZM10.8638 0.0989675C10.8737 0.0704938 10.8922 0.0458034 10.9167 0.0283291C10.9413 0.0108548 10.9707 0.00146484 11.0008 0.00146484C11.0309 0.00146484 11.0603 0.0108548 11.0849 0.0283291C11.1094 0.0458034 11.1279 0.0704938 11.1378 0.0989675L11.3958 0.872967C11.5108 1.21897 11.7818 1.48997 12.1278 1.60497L12.9018 1.86297C12.9303 1.87284 12.955 1.89134 12.9724 1.91589C12.9899 1.94044 12.9993 1.96983 12.9993 1.99997C12.9993 2.0301 12.9899 2.05949 12.9724 2.08404C12.955 2.1086 12.9303 2.1271 12.9018 2.13697L12.1278 2.39497C11.9574 2.45197 11.8026 2.54776 11.6756 2.67478C11.5486 2.80181 11.4528 2.95661 11.3958 3.12697L11.1378 3.90097C11.1279 3.92944 11.1094 3.95413 11.0849 3.97161C11.0603 3.98908 11.0309 3.99847 11.0008 3.99847C10.9707 3.99847 10.9413 3.98908 10.9167 3.97161C10.8922 3.95413 10.8737 3.92944 10.8638 3.90097L10.6058 3.12697C10.5488 2.95661 10.453 2.80181 10.326 2.67478C10.1989 2.54776 10.0441 2.45197 9.87379 2.39497L9.10079 2.13697C9.07231 2.1271 9.04762 2.1086 9.03015 2.08404C9.01267 2.05949 9.00328 2.0301 9.00328 1.99997C9.00328 1.96983 9.01267 1.94044 9.03015 1.91589C9.04762 1.89134 9.07231 1.87284 9.10079 1.86297L9.87479 1.60497C10.2208 1.48997 10.4918 1.21897 10.6068 0.872967L10.8638 0.0989675Z" fill="url(#paint0_linear_15_4347)"/>
</g>
<defs>
<linearGradient id="paint0_linear_15_4347" x1="13" y1="13.5015" x2="3.5" y2="3.50146" gradientUnits="userSpaceOnUse">
<stop stop-color="#8221CB"/>
<stop offset="0.59139" stop-color="#27CED8"/>
<stop offset="1" stop-color="#1F74CE"/>
</linearGradient>
<clipPath id="clip0_15_4347">
<rect width="16" height="16" fill="white"/>
</clipPath>
</defs>
</svg>
