<svg width="165" height="150" viewBox="0 0 165 150" fill="none" xmlns="http://www.w3.org/2000/svg">
<circle cx="13.5464" cy="75.5137" r="13.5464" fill="#C0DEFF"/>
<circle cx="116.632" cy="15.5464" r="13.5464" fill="#7DE4F9"/>
<circle cx="150.688" cy="74.5137" r="13.5464" fill="#00B6DE"/>
<circle cx="116.687" cy="133.44" r="13.5464" fill="#008BC0"/>
<circle cx="48.5816" cy="133.454" r="13.5464" fill="#1F74CE"/>
<circle cx="48.5615" cy="15.5532" r="13.5464" fill="#C4F5FF"/>
<path d="M116.657 13.1487L116.657 13.7356M116.657 17.8749L116.657 17.264" stroke="#195DA5" stroke-width="0.84665" stroke-linecap="round" stroke-linejoin="round"/>
<path d="M115.551 17.1802L116.864 17.1802C117.336 17.1802 117.719 16.8009 117.719 16.3331C117.719 15.8652 117.336 15.486 116.864 15.486L116.468 15.486M117.719 13.7917L116.406 13.7917C115.933 13.7917 115.551 14.171 115.551 14.6389C115.551 15.1067 115.838 15.486 116.406 15.486L116.76 15.486" stroke="#195DA5" stroke-width="0.84665" stroke-linecap="round"/>
<path d="M112.927 20.6665H120.559C121.026 20.6665 121.406 20.2874 121.406 19.8198V12.7264C121.406 12.4866 121.304 12.2579 121.126 12.0974L118.85 10.047C118.694 9.90687 118.492 9.82935 118.283 9.82935H112.927C112.46 9.82935 112.081 10.2084 112.081 10.676V19.8198C112.081 20.2874 112.46 20.6665 112.927 20.6665Z" stroke="#195DA5" stroke-width="0.84665"/>
<path d="M118.634 9.82935V11.9263C118.634 12.1601 118.823 12.3496 119.057 12.3496H121.406" stroke="#195DA5" stroke-width="0.84665" stroke-linejoin="round"/>
<path d="M147.753 79.045C149.25 79.045 150.463 77.832 150.463 76.3357C150.463 74.8395 149.25 73.6265 147.753 73.6265C146.257 73.6265 145.044 74.8395 145.044 76.3357C145.044 77.832 146.257 79.045 147.753 79.045Z" stroke="white" stroke-width="0.84665" stroke-linecap="round" stroke-linejoin="round"/>
<path d="M148.656 77.4291C148.494 77.5909 148.288 77.7011 148.064 77.7458C147.839 77.7904 147.606 77.7675 147.395 77.6799C147.184 77.5923 147.003 77.444 146.876 77.2537C146.749 77.0634 146.681 76.8396 146.681 76.6108V76.0964C146.681 75.8676 146.749 75.6438 146.876 75.4535C147.003 75.2632 147.184 75.1149 147.395 75.0273C147.606 74.9397 147.839 74.9168 148.064 74.9614C148.288 75.0061 148.494 75.1163 148.656 75.2782" stroke="white" stroke-width="0.634988" stroke-linecap="round" stroke-linejoin="round"/>
<path d="M146.321 75.9829H147.76" stroke="white" stroke-width="0.634988" stroke-linecap="round" stroke-linejoin="round"/>
<path d="M146.321 76.7874H147.52" stroke="white" stroke-width="0.634988" stroke-linecap="round" stroke-linejoin="round"/>
<path d="M150.688 74.078C152.185 74.078 153.398 72.865 153.398 71.3687C153.398 69.8724 152.185 68.6594 150.688 68.6594C149.192 68.6594 147.979 69.8724 147.979 71.3687C147.979 72.865 149.192 74.078 150.688 74.078Z" stroke="white" stroke-width="0.84665" stroke-linecap="round" stroke-linejoin="round"/>
<path d="M150.011 72.4977H151.027C151.177 72.4977 151.32 72.4383 151.426 72.3324C151.532 72.2266 151.591 72.083 151.591 71.9333C151.591 71.7836 151.532 71.64 151.426 71.5342C151.32 71.4283 151.177 71.3689 151.027 71.3689H150.35C150.2 71.3689 150.056 71.3094 149.95 71.2035C149.845 71.0977 149.785 70.9541 149.785 70.8044C149.785 70.6547 149.845 70.5112 149.95 70.4053C150.056 70.2995 150.2 70.24 150.35 70.24H151.366" stroke="white" stroke-width="0.634988" stroke-linecap="round" stroke-linejoin="round"/>
<path d="M153.623 79.045C155.12 79.045 156.333 77.832 156.333 76.3357C156.333 74.8395 155.12 73.6265 153.623 73.6265C152.127 73.6265 150.914 74.8395 150.914 76.3357C150.914 77.832 152.127 79.045 153.623 79.045Z" stroke="white" stroke-width="0.84665" stroke-linecap="round" stroke-linejoin="round"/>
<path d="M152.657 76.283H153.856" stroke="white" stroke-width="0.634988" stroke-linecap="round" stroke-linejoin="round"/>
<path d="M154.576 77.4223H152.657C152.8 77.4223 152.937 77.3655 153.038 77.2643C153.14 77.163 153.196 77.0258 153.196 76.8826V75.5632C153.196 75.4328 153.235 75.3052 153.308 75.1967C153.38 75.0883 153.483 75.0037 153.604 74.9538C153.724 74.9039 153.857 74.8908 153.985 74.9162C154.113 74.9417 154.23 75.0045 154.323 75.0968" stroke="white" stroke-width="0.634988" stroke-linecap="round" stroke-linejoin="round"/>
<path d="M9.7005 71.4509H9.32011C8.86718 71.4509 8.5 71.8181 8.5 72.271V78.5039C8.5 78.9568 8.86718 79.324 9.32011 79.324H16.8931C17.346 79.324 17.7132 78.9568 17.7132 78.5039V78.0956" stroke="#195DA5" stroke-width="0.84665" stroke-linecap="round"/>
<path d="M10.6604 78.0955H18.2892C18.7422 78.0955 19.1093 77.7283 19.1093 77.2753V74.1589V72.293C19.1093 72.0755 19.0229 71.8669 18.8691 71.7131L18.2439 71.0879L17.4995 70.4286C17.3495 70.2957 17.1561 70.2224 16.9557 70.2224H14.5216H10.6604C10.2075 70.2224 9.84033 70.5896 9.84033 71.0425V77.2753C9.84033 77.7283 10.2075 78.0955 10.6604 78.0955Z" stroke="#195DA5" stroke-width="0.84665" stroke-linecap="round"/>
<mask id="path-22-inside-1_74_60956" fill="white">
<rect x="10.9014" y="72.7351" width="6.97968" height="4.1878" rx="0.279187"/>
</mask>
<rect x="10.9014" y="72.7351" width="6.97968" height="4.1878" rx="0.279187" stroke="#195DA5" stroke-width="0.84665" mask="url(#path-22-inside-1_74_60956)"/>
<line x1="11.1245" y1="74.1428" x2="17.8808" y2="74.1428" stroke="#195DA5" stroke-width="0.423325"/>
<line x1="11.1245" y1="75.4829" x2="17.8808" y2="75.4829" stroke="#195DA5" stroke-width="0.423325"/>
<line x1="12.4778" y1="72.7419" x2="12.4778" y2="76.731" stroke="#195DA5" stroke-width="0.423325"/>
<line x1="13.7903" y1="72.7419" x2="13.7903" y2="76.731" stroke="#195DA5" stroke-width="0.423325"/>
<line x1="15.1023" y1="72.7419" x2="15.1023" y2="76.731" stroke="#195DA5" stroke-width="0.423325"/>
<line x1="16.4143" y1="72.7419" x2="16.4143" y2="76.731" stroke="#195DA5" stroke-width="0.423325"/>
<path d="M117.162 129.404L120.52 132.763" stroke="white" stroke-width="0.84665" stroke-linecap="round" stroke-linejoin="round"/>
<path d="M121.96 138.52H114.762L111.434 135.192" stroke="white" stroke-width="0.84665" stroke-linecap="round" stroke-linejoin="round"/>
<path d="M114.762 138.521H111.883C111.756 138.521 111.634 138.47 111.544 138.38C111.454 138.29 111.403 138.168 111.403 138.041V135.361C111.403 135.298 111.416 135.235 111.44 135.177C111.464 135.119 111.499 135.066 111.544 135.021L118.741 127.824C118.831 127.734 118.953 127.683 119.08 127.683C119.208 127.683 119.33 127.734 119.42 127.824L122.1 130.504C122.19 130.594 122.241 130.716 122.241 130.843C122.241 130.971 122.19 131.093 122.1 131.183L114.762 138.521Z" stroke="white" stroke-width="0.84665" stroke-linecap="round" stroke-linejoin="round"/>
<path d="M41.6524 22.0078V8.48784H55.1723V22.0078H41.6524Z" stroke="#034A96" stroke-width="0.0264578"/>
<path d="M43.7559 17.562V12.0588C43.7559 11.8343 43.8451 11.6189 44.0038 11.4601C44.1626 11.3014 44.378 11.2122 44.6025 11.2122H52.2224C52.4469 11.2122 52.6623 11.3014 52.821 11.4601C52.9798 11.6189 53.069 11.8343 53.069 12.0588V17.562" stroke="#034A96" stroke-width="0.84665" stroke-linecap="round" stroke-linejoin="round"/>
<path d="M42.9092 17.562H53.9156V18.4087C53.9156 18.6332 53.8264 18.8486 53.6677 19.0073C53.5089 19.1661 53.2935 19.2553 53.069 19.2553H43.7558C43.5313 19.2553 43.3159 19.1661 43.1572 19.0073C42.9984 18.8486 42.9092 18.6332 42.9092 18.4087V17.562Z" stroke="#034A96" stroke-width="0.84665" stroke-linecap="round" stroke-linejoin="round"/>
<path d="M49.2592 12.9055H47.5659" stroke="#034A96" stroke-width="0.84665" stroke-linecap="round" stroke-linejoin="round"/>
<g clip-path="url(#clip0_74_60956)">
<path d="M47.3597 130.376L44.5744 130.356L44.5947 127.57" stroke="white" stroke-width="0.84665" stroke-linecap="round" stroke-linejoin="round"/>
<path d="M53.3795 133.573C53.3795 132.568 53.0816 131.586 52.5234 130.751C51.9652 129.915 51.1719 129.264 50.2436 128.88C49.3154 128.495 48.294 128.395 47.3086 128.591C46.3232 128.787 45.418 129.271 44.7076 129.981" stroke="white" stroke-width="0.84665" stroke-linecap="round"/>
<path d="M43.4484 133.397C43.4073 134.581 43.7817 135.743 44.5067 136.681C45.2317 137.618 46.2618 138.273 47.4185 138.531C48.5753 138.789 49.7859 138.635 50.8408 138.095C51.8957 137.554 52.7285 136.662 53.195 135.573" stroke="white" stroke-width="0.84665" stroke-linecap="round" stroke-dasharray="0.03 1.9"/>
</g>
<path d="M60.8474 4.94696C60.5844 5.03126 60.4396 5.31276 60.5239 5.57573C60.6082 5.83869 60.8897 5.98353 61.1526 5.89924L60.8474 4.94696ZM105.229 5.8677C105.474 5.74136 105.571 5.43989 105.445 5.19434L103.386 1.19293C103.259 0.947387 102.958 0.85075 102.712 0.97709C102.467 1.10343 102.37 1.4049 102.497 1.65045L104.327 5.20726L100.77 7.03731C100.524 7.16365 100.428 7.46513 100.554 7.71067C100.68 7.95622 100.982 8.05286 101.227 7.92652L105.229 5.8677ZM61.1526 5.89924C68.0386 3.69196 75.3796 2.5 83 2.5V1.5C75.2748 1.5 67.8308 2.70844 60.8474 4.94696L61.1526 5.89924ZM83 2.5C90.6204 2.5 97.9614 3.69196 104.847 5.89924L105.153 4.94696C98.1692 2.70844 90.7252 1.5 83 1.5V2.5Z" fill="#1F74CE"/>
<path d="M131.318 20.4623C131.105 20.2864 130.79 20.3165 130.614 20.5294C130.438 20.7423 130.468 21.0574 130.681 21.2333L131.318 20.4623ZM154.5 58.3192C154.739 58.4577 155.045 58.3763 155.184 58.1374L157.441 54.2444C157.579 54.0055 157.498 53.6995 157.259 53.561C157.02 53.4225 156.714 53.5039 156.576 53.7428L154.569 57.2033L151.109 55.1971C150.87 55.0586 150.564 55.14 150.425 55.3789C150.287 55.6178 150.368 55.9237 150.607 56.0622L154.5 58.3192ZM130.681 21.2333C136.257 25.8383 141.223 31.3745 145.336 37.7893L146.178 37.2495C142.008 30.7465 136.972 25.1325 131.318 20.4623L130.681 21.2333ZM145.336 37.7893C149.45 44.2041 152.409 51.0272 154.268 58.0152L155.234 57.7581C153.349 50.6712 150.348 43.7526 146.178 37.2495L145.336 37.7893Z" fill="#1F74CE"/>
<path d="M33.5747 129.507C33.779 129.693 34.0952 129.678 34.2811 129.474C34.467 129.269 34.4521 128.953 34.2479 128.767L33.5747 129.507ZM12.2381 90.5799C12.0061 90.4301 11.6966 90.4967 11.5468 90.7286L9.10539 94.5088C8.95557 94.7407 9.02217 95.0502 9.25413 95.2001C9.4861 95.3499 9.7956 95.2833 9.94542 95.0513L12.1156 91.6912L15.4757 93.8613C15.7077 94.0112 16.0172 93.9446 16.167 93.7126C16.3168 93.4806 16.2502 93.1711 16.0182 93.0213L12.2381 90.5799ZM34.2479 128.767C28.9004 123.9 24.2061 118.131 20.4055 111.526L19.5387 112.025C23.3916 118.721 28.1516 124.57 33.5747 129.507L34.2479 128.767ZM20.4055 111.526C16.6049 104.921 13.9768 97.964 12.4556 90.8947L11.478 91.1051C13.0207 98.2744 15.6858 105.329 19.5387 112.025L20.4055 111.526Z" fill="#1F74CE"/>
<path d="M12.5032 60.0417C12.4493 60.3126 12.6253 60.5758 12.8961 60.6296C13.167 60.6834 13.4302 60.5075 13.484 60.2366L12.5032 60.0417ZM34.8328 21.6758C34.8414 21.3998 34.6246 21.1691 34.3486 21.1605L29.8508 21.0203C29.5747 21.0117 29.344 21.2285 29.3354 21.5045C29.3268 21.7805 29.5436 22.0112 29.8196 22.0198L33.8177 22.1444L33.6931 26.1425C33.6845 26.4185 33.9013 26.6492 34.1773 26.6578C34.4533 26.6664 34.684 26.4496 34.6926 26.1736L34.8328 21.6758ZM13.484 60.2366C14.8933 53.1442 17.4112 46.1462 21.107 39.482L20.2324 38.997C16.4858 45.7529 13.9324 52.8489 12.5032 60.0417L13.484 60.2366ZM21.107 39.482C24.8028 32.8178 29.4055 26.976 34.6754 22.0246L33.9906 21.2958C28.6461 26.3173 23.9791 32.2411 20.2324 38.997L21.107 39.482Z" fill="#1F74CE"/>
<path d="M154.409 90.7552C154.462 90.4843 154.286 90.2214 154.015 90.1682C153.744 90.1149 153.481 90.2913 153.428 90.5623L154.409 90.7552ZM132.155 129.165C132.147 129.441 132.364 129.672 132.64 129.68L137.139 129.811C137.415 129.819 137.645 129.602 137.653 129.326C137.661 129.05 137.444 128.819 137.168 128.811L133.169 128.695L133.286 124.696C133.294 124.42 133.077 124.19 132.801 124.182C132.525 124.174 132.295 124.391 132.286 124.667L132.155 129.165ZM153.428 90.5623C152.032 97.6575 149.528 104.66 145.846 111.332L146.721 111.815C150.454 105.052 152.994 97.9509 154.409 90.7552L153.428 90.5623ZM145.846 111.332C142.163 118.003 137.572 123.854 132.312 128.816L132.998 129.544C138.333 124.512 142.988 118.578 146.721 111.815L145.846 111.332Z" fill="#1F74CE"/>
<path d="M104.218 145.209C104.481 145.124 104.625 144.842 104.541 144.58C104.456 144.317 104.175 144.172 103.912 144.257L104.218 145.209ZM59.8358 144.332C59.5904 144.459 59.494 144.76 59.6206 145.006L61.6834 149.005C61.81 149.25 62.1116 149.347 62.357 149.22C62.6024 149.094 62.6987 148.792 62.5721 148.547L60.7386 144.992L64.2935 143.158C64.539 143.031 64.6353 142.73 64.5087 142.484C64.3821 142.239 64.0806 142.143 63.8351 142.269L59.8358 144.332ZM103.912 144.257C97.0281 146.471 89.6883 147.67 82.0679 147.678L82.0689 148.678C89.7941 148.67 97.2369 147.454 104.218 145.209L103.912 144.257ZM82.0679 147.678C74.4475 147.685 67.1053 146.501 60.2171 144.3L59.9128 145.253C66.8985 147.484 74.3436 148.685 82.0689 148.678L82.0679 147.678Z" fill="#1F74CE"/>
<path d="M107.509 87.7108H95.9745C94.3782 87.7108 92.9233 87.0629 91.8698 86.0199C90.814 84.9746 90.1595 83.5343 90.1595 81.954C90.1595 80.3714 90.814 78.9333 91.8675 77.8904C92.9234 76.8451 94.3783 76.1972 95.9746 76.1972H107.475L107.463 72.8018C107.461 71.8514 107.064 70.9845 106.43 70.3591C105.799 69.7338 104.921 69.3455 103.956 69.3455H59.8801C58.5529 69.3455 57.342 68.8127 56.4595 67.948V96.9801C56.4595 97.7681 56.7856 98.4837 57.31 99.0029C57.8323 99.5199 58.5574 99.845 59.3533 99.845H90.8911C91.2948 99.845 91.6209 100.17 91.6209 100.567C91.6209 100.967 91.2925 101.29 90.8911 101.29H59.3533C58.1561 101.29 57.066 100.804 56.2793 100.023C55.4903 99.2422 55 98.1654 55 96.9801V64.4757C55.0091 63.1619 55.5564 61.9676 56.4321 61.1007C57.2393 60.3015 58.3294 59.7777 59.5334 59.6942L58.5255 54.0322C58.4571 53.6394 58.7216 53.2647 59.1184 53.1969L70.9786 51.1268V48.7224C70.9786 48.3228 71.3069 48 71.7083 48H95.4795C95.8831 48 96.2092 48.3251 96.2092 48.7224V59.6807H99.3197C99.7917 59.6807 100.22 59.8726 100.531 60.1796C100.841 60.4867 101.035 60.9111 101.035 61.3784V67.8981H103.956C105.317 67.8981 106.558 68.449 107.456 69.3362C108.355 70.2211 108.913 71.447 108.918 72.7993L109 96.9912C109 98.1697 108.51 99.242 107.721 100.021C106.936 100.795 105.853 101.281 104.66 101.283L97.3514 101.287C96.9477 101.287 96.6216 100.962 96.6216 100.565C96.6216 100.165 96.95 99.8426 97.3514 99.8426H104.66C105.449 99.8448 106.17 99.5197 106.697 99.0005C107.217 98.4858 107.541 97.7746 107.541 96.9912L107.513 87.7084L107.509 87.7108ZM86.2008 58.6105C86.2008 59.0101 85.8724 59.3329 85.4711 59.3329C85.0674 59.3329 84.7413 59.0078 84.7413 58.6105C84.7413 58.4525 84.641 58.2944 84.4768 58.1703C84.2624 58.0055 83.9478 57.9039 83.592 57.9039C83.2363 57.9039 82.9239 58.0055 82.7072 58.1703C82.543 58.2944 82.4427 58.4525 82.4427 58.6105C82.4427 58.7866 82.5681 58.9762 82.7665 59.1658C83.0493 59.4345 83.4598 59.6851 83.9159 59.9109C84.4974 60.1976 85.0287 60.5294 85.4255 60.9042C85.9044 61.3603 86.2008 61.8863 86.2008 62.5003C86.2008 63.1302 85.8816 63.6878 85.3662 64.0806C85.0743 64.3041 84.7163 64.4712 84.324 64.566V65.0807C84.324 65.4803 83.9956 65.8032 83.5943 65.8032C83.1906 65.8032 82.8645 65.4781 82.8645 65.0807V64.566C82.47 64.4712 82.112 64.3019 81.8224 64.0806C81.307 63.6878 80.9877 63.1302 80.9877 62.5003C80.9877 62.1007 81.3161 61.7779 81.7175 61.7779C82.1211 61.7779 82.4472 62.103 82.4472 62.5003C82.4472 62.6606 82.5475 62.8164 82.7117 62.9405C82.9261 63.1054 83.2408 63.2069 83.5965 63.2069C83.9522 63.2069 84.2647 63.1054 84.4813 62.9405C84.6455 62.8164 84.7458 62.6583 84.7458 62.5003C84.7458 62.3242 84.6204 62.1346 84.422 61.945C84.1392 61.6763 83.7288 61.4257 83.2726 61.1999C82.6934 60.9132 82.1598 60.5836 81.763 60.2066C81.2841 59.7528 80.9877 59.2245 80.9877 58.6105C80.9877 57.9806 81.307 57.423 81.8223 57.0302C82.1142 56.8067 82.4723 56.6396 82.8645 56.5448V56.0301C82.8645 55.6305 83.1929 55.3076 83.5943 55.3076C83.9979 55.3076 84.324 55.6327 84.324 56.0301V56.5448C84.7185 56.6396 85.0765 56.8089 85.3662 57.0302C85.8815 57.423 86.2008 57.9806 86.2008 58.6105ZM95.8216 79.511C96.5012 79.511 97.1192 79.7842 97.5661 80.2267C98.0131 80.6692 98.289 81.281 98.289 81.9538C98.289 82.6265 98.0108 83.2361 97.5661 83.6786C97.1169 84.1233 96.4989 84.3965 95.8216 84.3965C95.142 84.3965 94.524 84.121 94.0771 83.6808C93.6301 83.2383 93.3542 82.6265 93.3542 81.9538C93.3542 81.2832 93.6301 80.6714 94.0771 80.229C94.5286 79.7842 95.1443 79.5088 95.8216 79.5088V79.511ZM96.5354 81.2494C96.3529 81.0688 96.0998 80.9581 95.8216 80.9581C95.5411 80.9581 95.288 81.0688 95.1078 81.2471C94.9254 81.4277 94.8136 81.6783 94.8136 81.956C94.8136 82.2314 94.9276 82.482 95.1078 82.6626C95.2902 82.8433 95.5411 82.9539 95.8216 82.9539C96.1021 82.9539 96.3552 82.8433 96.5377 82.6626C96.7178 82.482 96.8318 82.2315 96.8318 81.9537C96.8318 81.6783 96.7178 81.4277 96.5377 81.2471L96.5354 81.2494ZM60.409 89.5867C60.0053 89.5867 59.6792 89.2616 59.6792 88.8643C59.6792 88.4647 60.0076 88.1419 60.409 88.1419H73.0129C73.4165 88.1419 73.7426 88.4669 73.7426 88.8643C73.7426 89.2639 73.4143 89.5867 73.0129 89.5867H60.409ZM60.409 91.2866H72.874C73.2776 91.2866 73.6037 91.6117 73.6037 92.0091V96.0659C73.6037 96.4655 73.2753 96.7883 72.874 96.7883H60.409C60.0053 96.7883 59.6792 96.4632 59.6792 96.0659V92.0091C59.6792 91.6095 60.0076 91.2866 60.409 91.2866ZM72.1442 92.7315H61.1387V95.3435H72.1442V92.7315ZM59.7867 61.1298C58.8813 61.1524 58.0604 61.5294 57.4606 62.1232C56.7948 62.7824 56.4549 63.6313 56.4549 64.5591C56.4663 65.4734 56.8494 66.3042 57.4606 66.907C58.0786 67.521 58.9337 67.9026 59.8756 67.9026H60.9907L59.7844 61.1297L59.7867 61.1298ZM62.4753 67.9027H70.9764V52.5943L60.0853 54.4952L62.4752 67.9004L62.4753 67.9027ZM75.5077 51.7655H91.6757C92.0793 51.7655 92.4054 52.0906 92.4054 52.4879V67.9004H94.7474V49.4468H72.438V67.9004H74.78V52.4879C74.78 52.0883 75.1083 51.7655 75.5097 51.7655H75.5077ZM90.9436 53.2103H76.2374V67.9004H90.9436V53.2103ZM96.2045 67.9004H99.5704V61.3807C99.5704 61.3107 99.5407 61.2475 99.4951 61.2023C99.4495 61.1572 99.3856 61.1278 99.315 61.1278H96.2045V67.9004ZM107.474 77.6415H95.9698C94.7703 77.6415 93.6825 78.1269 92.8935 78.9058C92.1068 79.6869 91.6165 80.766 91.6165 81.9512C91.6165 83.1387 92.1068 84.2156 92.8935 84.9967C93.6826 85.7755 94.7726 86.2609 95.9698 86.2609H107.5L107.474 77.6392L107.474 77.6415ZM94.1817 99.8424C94.5853 99.8424 94.9114 100.168 94.9114 100.565C94.9114 100.964 94.583 101.287 94.1817 101.287H94.0517C93.648 101.287 93.322 100.962 93.322 100.565C93.322 100.165 93.6503 99.8424 94.0517 99.8424H94.1817Z" fill="#1F74CE"/>
<defs>
<clipPath id="clip0_74_60956">
<rect width="13.5464" height="13.5464" fill="white" transform="translate(41.6392 126.329)"/>
</clipPath>
</defs>
</svg>
